<svg width="67" height="55" viewBox="0 0 67 55" fill="none" xmlns="http://www.w3.org/2000/svg">
<path id="&#208;&#152;&#208;&#186;&#208;&#190;&#208;&#189;&#208;&#186;&#208;&#176; &#34;&#208;&#178;&#208;&#190;&#208;&#191;&#209;&#128;&#208;&#190;&#209;&#129; 1&#34;" fill-rule="evenodd" clip-rule="evenodd" d="M9.41128 45.6562C9.5441 45.3395 10.1323 44.6129 10.379 44.2404C12.0297 41.8558 13.3769 40.9243 11.0241 39.1359C9.65795 38.1113 8.14 36.3788 7.17231 34.9629C4.57282 31.1253 2.96 26.0395 4.00359 20.3575C4.64872 16.8738 6.28051 13.4646 8.53846 10.9497C8.78513 10.6889 8.78513 10.633 9.08872 10.3535C9.29744 10.1672 9.43026 9.96232 9.63897 9.75739C10.2272 9.17988 11.4985 8.09938 12.1626 7.61502C12.599 7.31695 13.0733 6.98162 13.5667 6.70218C17.1528 4.67158 20.3974 3.6097 24.8944 3.6097C36.26 3.6097 45.861 12.6077 45.861 23.8039C45.861 28.2005 44.3051 32.2617 42.2559 35.0933C41.9713 35.4846 41.7246 35.8199 41.459 36.1552C40.5292 37.3661 38.8974 38.9124 37.6641 39.8252C36.5067 40.6635 35.4441 41.2783 34.1538 41.9303C30.6626 43.6815 25.919 44.4825 21.4221 43.7933C20.6821 43.6815 18.8036 43.1412 18.2533 43.2158C17.4944 43.3089 16.0713 43.8119 15.3123 44.0168C14.2877 44.3149 13.339 44.5571 12.3713 44.8551C11.5174 45.0973 10.3031 45.4885 9.41128 45.6562ZM25.7103 36.6768C26.1846 34.4413 22.7313 33.5285 22.1051 35.8571C21.4979 38.1858 25.16 39.0987 25.7103 36.6768ZM24.7046 9.14262C23.2815 9.31029 21.7636 9.8878 20.6631 10.633C18.7467 11.9557 17.4374 13.7441 16.9062 16.0355C16.6785 16.9856 16.4318 18.3269 16.9821 19.0721C17.5133 19.78 18.6897 20.2271 19.5815 19.5192C21.0426 18.3642 19.5246 17.0415 21.7826 14.4334C23.0159 13.0175 25.3877 12.4028 27.2851 12.8685C29.1256 13.3156 30.5677 14.6755 31.1559 16.3336C31.7821 18.1406 31.4026 19.8173 30.3021 21.289C29.6949 22.1087 28.5564 22.8538 27.5508 23.1519C26.2605 23.5431 23.5472 23.1147 22.4277 25.3688C21.9344 26.3375 22.0672 27.4739 22.0672 28.6476C22.0672 29.7281 21.8774 31.1253 22.4087 31.945C22.8451 32.597 24.0974 32.9323 24.9703 32.3548C25.8431 31.7773 25.7672 30.7713 25.7672 29.5045L25.7482 27.2876C25.8051 26.8219 25.6344 27.1386 26.9056 26.9896C28.6892 26.766 30.7954 25.9649 32.0287 24.7727C33.3759 23.4314 34.3246 22.444 34.8559 20.283C36.3738 14.1167 31.3646 8.39745 24.7046 9.14262ZM66.6 29.5232C66.2205 28.6289 66.7897 24.3069 62.4826 18.3269L61.42 17.0228C60.2626 15.8119 60.0159 15.5325 58.6877 14.452C57.3974 13.4088 55.5 12.2724 53.8303 11.6203C53.0713 11.3223 52.3123 11.0428 51.5154 10.8193C50.5477 10.5398 49.7318 11.0242 49.4092 11.5458C48.9349 12.3282 49.1246 13.3715 49.6559 13.8559C50.1303 14.2843 51.1359 14.4706 51.8759 14.7501C59.4277 17.4886 64.1903 25.6296 62.5774 33.9383C62.2359 35.6336 61.6287 37.0867 60.9456 38.4466C60.1677 39.9556 58.8774 41.6509 57.6062 42.7873L56.3918 43.8678C56.221 43.9982 56.1262 44.0913 56.0123 44.2031C55.7846 44.4453 55.5949 44.7992 55.5379 45.2091C55.3862 46.3641 57.1508 48.4879 57.3785 49.3634C56.3918 49.0095 51.06 47.0534 50.3769 47.0534C49.9026 47.072 48.9728 47.3701 48.4036 47.4632C47.7205 47.5937 47.0754 47.6682 46.3354 47.7241C45.0641 47.8358 43.1477 47.8172 41.8764 47.6682C40.2256 47.4632 39.5805 47.0534 38.2903 46.5504C36.981 46.0288 35.6528 47.1279 35.8046 48.4692C35.9564 49.7733 37.2656 50.1086 38.4231 50.5371C41.3831 51.6549 45.8231 51.599 48.9538 51.0587C49.6749 50.9283 50.1492 50.6675 50.7944 50.9097C53.0333 51.748 55.4051 52.4745 57.6821 53.3129C58.3272 53.5551 60.6421 54.4306 61.2303 54.4493C62.5964 54.4865 63.5262 53.1638 62.9379 51.8411C62.5205 50.8911 59.8451 46.3455 59.7123 45.8052C61.3441 44.7061 63.2795 41.8185 64.3041 39.9742C65.2338 38.2976 65.9549 36.0434 66.2964 34.0874C66.3723 33.6216 66.4672 32.1126 66.6 31.8332V29.5232ZM0 22.6675V25.1453C0.113846 25.3874 0.284615 27.3808 0.360513 27.8651C0.512308 28.6848 0.683077 29.5232 0.929744 30.3056C2.04923 34.1246 3.41538 36.1366 5.69231 39.0428C6.07179 39.5271 7.57077 40.9989 7.93128 41.3156L5.55949 44.6875C5.12308 45.265 4.74359 45.8239 4.34513 46.4014C4.11744 46.7181 3.92769 46.9416 3.73795 47.2397C3.52923 47.5564 3.32051 47.7613 3.16872 48.0966C2.69436 49.1399 3.26359 51.2078 5.90103 50.4439C7.41897 49.9968 8.88 49.6056 10.3979 49.1585L17.2097 47.2397C18.5 46.8857 18.1774 46.8485 19.5246 47.1279C28.6133 48.9909 37.9677 45.8239 43.8308 39.0614C51.1549 30.6037 51.4964 18.4014 44.4949 9.40344L43.1667 7.8572C42.5405 7.11202 40.9277 5.75208 40.1118 5.11868C35.4631 1.46732 29.6569 -0.172061 23.5282 0.0142325C21.8964 0.0514913 19.9421 0.368191 18.4431 0.759407C16.8113 1.20651 15.5969 1.69088 14.1738 2.26839C12.9405 2.77138 11.4415 3.70285 10.4549 4.37351C5.18 7.95035 1.32821 13.6323 0.30359 20.134C0.227692 20.5624 0.0758974 22.4813 0 22.6675Z" fill="#50A2A8"/>
</svg>
