<svg width="238" height="59" viewBox="0 0 238 59" fill="none" xmlns="http://www.w3.org/2000/svg">
<path fill-rule="evenodd" clip-rule="evenodd" d="M36.7826 46.1832C37.5543 45.7103 38.66 45.2153 39.914 44.9936L39.9214 44.7424C39.9214 44.469 39.9363 44.1883 39.9511 43.9149C38.4448 44.1439 37.124 44.7202 36.2187 45.2817C34.6901 46.2275 33.4583 47.3136 32.2711 48.3628C31.1506 49.3528 29.6072 50.6236 27.9302 51.6433V51.658C27.0768 52.1752 26.2161 52.6407 25.5334 52.8993C24.732 53.2096 23.8267 53.4239 22.914 53.4534H22.8472C22.8843 53.5643 22.9214 53.6751 22.9585 53.7933C23.0402 54.0298 23.1366 54.2736 23.2479 54.4952C24.2348 54.4287 25.1995 54.1775 26.0528 53.8377C26.5129 53.6529 27.1955 53.2909 27.9302 52.8624V52.855C28.6796 52.4264 29.4662 51.9019 30.1563 51.4068C31.21 50.6532 32.182 49.8626 32.976 49.1607C34.1261 48.1411 35.3208 47.0919 36.7826 46.1832ZM19.0851 12.8092C18.3134 13.2895 17.2078 13.7771 15.9463 13.9988V14.2574C15.9463 14.5307 15.9315 14.8115 15.9166 15.0849C17.423 14.8558 18.7438 14.2721 19.6491 13.718C21.1777 12.7723 22.4094 11.6862 23.5967 10.6296C24.7172 9.63955 26.2606 8.37611 27.9302 7.3565V7.33433C28.7909 6.81713 29.6517 6.35166 30.3344 6.09306C31.1357 5.79013 32.0336 5.57586 32.9537 5.54631H33.0205C32.9834 5.42809 32.9463 5.31726 32.9092 5.20644C32.8276 4.96262 32.7311 4.72618 32.6198 4.49714C31.6329 4.57102 30.6683 4.81485 29.8149 5.16211C29.3549 5.33943 28.6722 5.70147 27.9302 6.13V6.14478C27.1881 6.56592 26.4016 7.0979 25.7115 7.58554C24.6504 8.33917 23.6857 9.13713 22.8918 9.83904L22.8468 9.87859L22.8468 9.87862C21.7104 10.8788 20.5279 11.9196 19.0851 12.8092ZM11.7093 55.271C11.687 55.6626 11.7167 56.0542 11.7909 56.4162C11.9022 56.9187 12.0581 57.3103 12.251 57.5984L12.2732 57.628C12.4959 57.9457 12.7704 58.1452 13.0895 58.219C13.4011 58.3003 13.7351 58.2486 14.069 58.0713C14.3806 57.9087 14.6997 57.6353 15.0113 57.2585C15.2636 56.963 15.4788 56.6305 15.6643 56.2759C15.8424 55.9286 15.9908 55.5518 16.0947 55.1602C16.1986 54.7686 16.258 54.377 16.2802 53.9854C16.3025 53.5864 16.2728 53.2022 16.2134 52.8254V52.8106C16.1318 52.323 15.9908 51.9314 15.7979 51.6359C15.5976 51.3182 15.3378 51.1113 15.0262 51.0152H15.0188C14.7145 50.9266 14.3732 50.9561 14.017 51.1261C13.6979 51.2738 13.3566 51.5398 13.0004 51.9388C12.7481 52.2196 12.5255 52.5373 12.3474 52.8919C12.1619 53.254 12.0135 53.6382 11.9022 54.0445C11.7983 54.4509 11.7241 54.8647 11.7093 55.271ZM38.3112 41.2181C40.9454 38.2183 42.5705 34.0808 42.5705 29.5147C42.5705 24.9486 40.9454 20.811 38.3112 17.8112C35.6622 14.7893 31.9965 12.92 27.9524 12.92C23.9009 12.92 20.2353 14.7893 17.5862 17.8112C14.952 20.811 13.3269 24.9486 13.3269 29.5147C13.3269 34.0808 14.952 38.2183 17.5862 41.2181C20.2353 44.2326 23.9009 46.1019 27.9524 46.1019C31.9965 46.1019 35.6622 44.2326 38.3112 41.2181ZM41.502 29.5147C41.502 33.8148 39.9734 37.7085 37.5098 40.5162C35.0611 43.309 31.6774 45.0379 27.9524 45.0379C24.22 45.0379 20.8437 43.309 18.3876 40.5162C15.9241 37.7085 14.3955 33.8148 14.3955 29.5147C14.3955 25.2072 15.9241 21.3208 18.3876 18.5058C20.8437 15.7129 24.22 13.9914 27.9524 13.9914C31.6774 13.9914 35.0611 15.7129 37.5098 18.5058C39.9734 21.3208 41.502 25.2072 41.502 29.5147ZM44.1584 3.72873C44.1807 3.32975 44.151 2.94555 44.0768 2.57612C43.9655 2.08109 43.8097 1.6895 43.6168 1.40135L43.5945 1.36441C43.3719 1.0467 43.0973 0.847212 42.7783 0.773327C42.4666 0.699442 42.1327 0.751161 41.7988 0.921097C41.4871 1.08364 41.168 1.35702 40.849 1.74122C40.6041 2.03676 40.3815 2.36925 40.2034 2.7239C40.0253 3.07116 39.8769 3.44058 39.773 3.83217C39.6617 4.22376 39.6024 4.62274 39.5875 5.00695C39.5653 5.40593 39.5875 5.79752 39.6543 6.16694V6.18172C39.7359 6.66936 39.8769 7.06834 40.0624 7.36388C40.2702 7.68159 40.5299 7.88847 40.8416 7.97713H40.849C41.1532 8.07318 41.4945 8.03624 41.8507 7.87369C42.1624 7.72592 42.5111 7.45255 42.8673 7.06095C43.1196 6.78019 43.3422 6.4551 43.5203 6.10784C43.7058 5.7458 43.8542 5.35421 43.9655 4.94784C44.0694 4.54886 44.1436 4.1351 44.1584 3.72873ZM43.0306 2.79778C43.0899 3.07854 43.1048 3.37408 43.0899 3.67701C43.0751 3.99472 43.0231 4.33459 42.9267 4.67446C42.8376 5.01434 42.7189 5.33943 42.5705 5.62019C42.4295 5.89357 42.2663 6.13739 42.0733 6.35166C41.8136 6.63242 41.5836 6.81713 41.3907 6.91318C41.2868 6.95751 41.2052 6.97229 41.1458 6.95752C41.0864 6.94274 41.0271 6.88363 40.9677 6.78758C40.8564 6.61764 40.7674 6.35166 40.708 6.0044V5.99701C40.656 5.69408 40.6338 5.38376 40.656 5.05867C40.6709 4.74835 40.7154 4.43064 40.8045 4.10555C40.8935 3.78045 41.0122 3.48491 41.1532 3.21154C41.3016 2.916 41.4797 2.65001 41.6726 2.42097C41.8952 2.14759 42.1104 1.96288 42.2959 1.86683C42.3924 1.81511 42.474 1.79294 42.5334 1.80772C42.5853 1.8225 42.6521 1.87422 42.7189 1.97765L42.7337 1.99243C42.8525 2.16976 42.9489 2.44313 43.0306 2.79778ZM51.8608 12.4102C52.165 12.3955 52.4618 12.4176 52.7438 12.4767C53.1074 12.5506 53.3745 12.6541 53.5526 12.7649L53.5749 12.7797C53.6713 12.8536 53.7233 12.9127 53.7381 12.9644C53.7529 13.0161 53.7381 13.09 53.701 13.1713L53.6787 13.2082C53.5897 13.3855 53.4116 13.585 53.1593 13.7993L53.1296 13.8214C52.8848 14.0209 52.6176 14.1983 52.3357 14.346C52.0611 14.4864 51.7569 14.6046 51.4304 14.6859C51.1039 14.7746 50.7848 14.8263 50.4732 14.8411C50.1541 14.8558 49.8276 14.8337 49.5234 14.782C49.182 14.7228 48.9149 14.6342 48.7368 14.5234C48.6403 14.4642 48.581 14.4051 48.5661 14.3534C48.5513 14.2943 48.5661 14.213 48.6181 14.1022C48.7071 13.9175 48.8852 13.6958 49.1523 13.4446L49.182 13.4225C49.3898 13.2378 49.6421 13.0678 49.9092 12.9274C50.1986 12.7871 50.5177 12.6615 50.859 12.5728C51.2004 12.4841 51.5417 12.425 51.8608 12.4102ZM52.9664 11.435C52.5954 11.3537 52.2095 11.3315 51.8162 11.3463C51.4081 11.3685 50.9926 11.435 50.5845 11.5458C50.1763 11.6492 49.7831 11.797 49.4195 11.9817C49.0707 12.1664 48.7442 12.3807 48.4622 12.6319L48.4326 12.6614C48.0541 13.0087 47.7944 13.3412 47.646 13.6515C47.4828 14.0062 47.4531 14.3386 47.5421 14.649C47.6312 14.9593 47.8464 15.2253 48.1654 15.4248C48.4548 15.6095 48.8555 15.7499 49.3453 15.8311C49.7237 15.8976 50.117 15.9198 50.5251 15.905C50.9184 15.8828 51.3117 15.8237 51.7049 15.7203C52.0982 15.6169 52.4692 15.4691 52.818 15.2918H52.8254C53.1816 15.107 53.5155 14.8854 53.8123 14.6416L53.842 14.612C54.2056 14.3017 54.4727 13.9988 54.6286 13.6958L54.6508 13.6515C54.8066 13.3338 54.8512 13.0235 54.777 12.7206C54.7028 12.4029 54.5024 12.1295 54.1833 11.9078L54.1462 11.8857C53.8568 11.6936 53.4636 11.5384 52.9664 11.435ZM51.8162 47.6461C52.2095 47.6682 52.5954 47.6387 52.9664 47.5648C53.4636 47.454 53.8568 47.3062 54.1462 47.1067L54.1833 47.0919C54.5024 46.8703 54.7028 46.5895 54.777 46.2718C54.8512 45.9763 54.8066 45.666 54.6508 45.3482L54.6286 45.2965C54.4727 45.001 54.2056 44.6907 53.842 44.3804L53.8123 44.3508C53.5155 44.1144 53.1816 43.8927 52.8254 43.708H52.818C52.4692 43.5307 52.0982 43.3829 51.7049 43.2795C51.3117 43.176 50.9184 43.1169 50.5251 43.0947C50.117 43.0726 49.7237 43.1021 49.3453 43.1612C48.8555 43.2499 48.4548 43.3903 48.1654 43.575C47.8464 43.7745 47.6312 44.0331 47.5421 44.3508C47.4531 44.6611 47.4828 44.9936 47.646 45.3482C47.7944 45.6586 48.0541 45.9911 48.4326 46.3309L48.4622 46.3605C48.7442 46.6117 49.0707 46.8333 49.4195 47.0107C49.7831 47.1954 50.1763 47.3431 50.5845 47.454C50.9926 47.5648 51.4081 47.6313 51.8162 47.6461ZM52.7438 46.523C52.4618 46.5821 52.165 46.6043 51.8608 46.5895C51.5417 46.5747 51.2004 46.5156 50.859 46.427C50.5177 46.3309 50.1986 46.2127 49.9092 46.0649C49.6421 45.9246 49.3898 45.762 49.182 45.5699L49.1523 45.5477C48.8852 45.3039 48.7071 45.0823 48.6181 44.8902C48.5661 44.7867 48.5513 44.7054 48.5661 44.6463C48.581 44.5946 48.6403 44.5355 48.7368 44.4764C48.9149 44.3582 49.182 44.2695 49.5234 44.2178C49.8276 44.1587 50.1541 44.1439 50.4732 44.1587C50.7848 44.1735 51.1039 44.2252 51.4304 44.3065C51.7569 44.3951 52.0611 44.5133 52.3357 44.6537C52.6176 44.8015 52.8848 44.9788 53.1296 45.1783L53.1593 45.2005C53.4116 45.4147 53.5897 45.6142 53.6787 45.7916L53.701 45.8211C53.7381 45.9098 53.7529 45.9763 53.7381 46.028C53.7233 46.0871 53.6713 46.1462 53.5749 46.2127L53.5526 46.2275C53.3745 46.3457 53.1074 46.4417 52.7438 46.523ZM43.0899 55.3227C43.1048 55.6183 43.0899 55.9138 43.0306 56.1946C42.9489 56.5566 42.8525 56.8226 42.7337 56.9999L42.7189 57.0221C42.6521 57.1182 42.5853 57.1773 42.5334 57.1847C42.474 57.1994 42.3924 57.1847 42.2959 57.1329C42.1104 57.0369 41.8952 56.8522 41.6726 56.5788C41.4797 56.3424 41.3016 56.0764 41.1532 55.7882C41.0122 55.5148 40.8935 55.2119 40.8045 54.8868C40.7154 54.5617 40.6709 54.244 40.656 53.9411C40.6338 53.616 40.656 53.2983 40.708 52.9954C40.7674 52.6481 40.8564 52.3821 40.9677 52.2048C41.0271 52.1087 41.0864 52.057 41.1458 52.0349C41.2052 52.0201 41.2868 52.0349 41.3907 52.0866C41.5836 52.1826 41.8136 52.3673 42.0733 52.6481C42.2663 52.855 42.4295 53.1062 42.5705 53.3722C42.7189 53.6603 42.8376 53.978 42.9267 54.3179C43.0231 54.6578 43.0751 54.9977 43.0899 55.3227ZM44.0768 56.4162C44.151 56.0542 44.1807 55.6626 44.1584 55.271C44.1436 54.8647 44.0694 54.4509 43.9655 54.0445C43.8542 53.6382 43.7058 53.254 43.5203 52.8919C43.3422 52.5373 43.1196 52.2196 42.8673 51.9388C42.5111 51.5398 42.1624 51.2738 41.8507 51.1261C41.4945 50.9561 41.1532 50.9266 40.849 51.0152H40.8416C40.5299 51.1113 40.2702 51.3182 40.0624 51.6359C39.8769 51.9314 39.7359 52.323 39.6543 52.8106V52.8254C39.5875 53.2022 39.5653 53.5864 39.5875 53.9854C39.6024 54.377 39.6617 54.7686 39.773 55.1602C39.8769 55.5518 40.0253 55.9286 40.2034 56.2759C40.3815 56.6305 40.6041 56.963 40.849 57.2585C41.168 57.6353 41.4871 57.9087 41.7988 58.0713C42.1327 58.2486 42.4666 58.3003 42.7783 58.219C43.0973 58.1452 43.3719 57.9457 43.5945 57.628L43.6168 57.5984C43.8097 57.3103 43.9655 56.9187 44.0768 56.4162ZM31.6552 2.47269C31.9817 2.74606 32.2711 3.04899 32.5234 3.37408C33.3568 4.44488 33.5317 5.27514 33.7484 6.30342L33.7484 6.30351L33.7485 6.30355L33.7485 6.30358C33.8308 6.69429 33.9191 7.11359 34.0519 7.58554C34.1632 7.97713 34.2968 8.36133 34.4675 8.74554C34.8756 9.65432 35.4989 10.5188 36.4784 11.2946C36.8643 11.5975 37.2353 11.797 37.5692 11.8783L37.5914 11.8857C37.9402 11.9669 38.2519 11.9374 38.5338 11.8044L38.5709 11.7896C38.8603 11.6418 39.0755 11.3906 39.2165 11.036C39.3575 10.6887 39.4243 10.2306 39.3946 9.67649C39.3723 9.29967 39.2981 8.91547 39.1794 8.53866C39.0533 8.15445 38.8826 7.77764 38.6674 7.40821C38.66 7.39344 38.6451 7.37127 38.6303 7.3565V7.34911C38.4893 7.14962 38.3483 6.95752 38.1925 6.78019L38.1702 6.74325C37.2575 5.66453 36.1742 5.02911 35.0314 4.71879L35.0611 4.80746C35.1798 5.21383 35.2837 5.61281 35.3505 5.95268C36.0777 6.24822 36.7604 6.72847 37.354 7.43038L37.3837 7.45993C37.5098 7.61509 37.6285 7.77764 37.7547 7.95496V7.96235L37.7621 7.96974C37.9254 8.26528 38.0663 8.56821 38.1628 8.86375C38.2593 9.15191 38.3112 9.44745 38.3261 9.72821V9.74299C38.3483 10.1346 38.3112 10.4375 38.2296 10.637C38.1851 10.7478 38.1331 10.8143 38.0738 10.8439L38.0589 10.8513C38.007 10.8734 37.9328 10.8734 37.8437 10.8513L37.8215 10.8439C37.6285 10.7922 37.3985 10.6666 37.1388 10.4597C36.3077 9.80948 35.7883 9.07802 35.447 8.30961C35.2837 7.96235 35.165 7.6077 35.0611 7.24567C34.9341 6.78144 34.8369 6.37024 34.7479 5.9938L34.7478 5.99375C34.3949 4.50094 34.1711 3.55464 32.7311 2.0146C32.6348 1.91272 32.5288 1.82057 32.4248 1.73026L32.4248 1.7302L32.4247 1.73013C32.4005 1.70914 32.3765 1.68824 32.3527 1.66734C31.21 0.699442 29.711 0.0566406 27.9302 0.0566406C26.1567 0.0566406 24.6578 0.699442 23.5151 1.66734C22.7433 2.31753 22.1349 3.12288 21.7119 3.98733L21.7416 3.97994C22.1571 3.92822 22.5653 3.91345 22.9585 3.92822C23.2924 3.39625 23.708 2.89383 24.2052 2.47269H24.2126C25.1698 1.65995 26.4387 1.12059 27.9302 1.12059C29.4291 1.12059 30.6905 1.65995 31.6552 2.47269ZM43.9804 7.64465C43.4906 7.97713 43.0083 8.36872 42.5482 8.81942V8.82681H42.5408L42.5037 8.87114C41.1829 10.3415 40.5967 11.9522 40.4705 13.5481L40.5744 13.5628C40.9009 13.6072 41.2274 13.6146 41.5391 13.5998C41.6504 12.2329 42.1624 10.8513 43.2977 9.58044V9.57305C43.7058 9.18146 44.1362 8.82681 44.5814 8.53127L44.6185 8.50172C45.0712 8.19879 45.5461 7.94758 46.021 7.74809C46.6368 7.48949 47.1414 7.37127 47.5199 7.37866C47.7202 7.38605 47.8686 7.43038 47.9577 7.51904C48.0541 7.60032 48.1061 7.75548 48.1209 7.96235V7.96974C48.1432 8.34656 48.0393 8.87114 47.7944 9.53611C47.6163 9.9942 47.3715 10.4523 47.0746 10.8956C46.763 11.3537 46.3845 11.8044 45.9616 12.2255L45.9542 12.2329C45.4051 12.7501 44.8337 13.1343 44.2623 13.4225C41.8507 14.6268 39.0162 14.1909 36.7826 12.8092C35.3398 11.9196 34.1573 10.8787 33.0209 9.87858L33.0209 9.87854L32.976 9.83904C31.8555 8.84159 30.7647 7.88108 29.4884 7.0979L29.481 7.10529H29.4736L29.4588 7.11267L29.4513 7.12006H29.4439L29.4365 7.12745L29.4142 7.13484H29.4068L29.3994 7.14223L29.3845 7.14962H29.3771L29.3697 7.157H29.3623L29.3474 7.16439L29.3326 7.17178H29.3252L29.1964 7.23946L29.1963 7.23948C28.9854 7.35009 28.7729 7.46158 28.5757 7.57815L28.5683 7.58554L28.5609 7.59293H28.5535V7.60032H28.5461L28.5386 7.6077H28.5312L28.5238 7.61509H28.5164V7.62248H28.5089L28.5015 7.62987H28.4941L28.4867 7.63726H28.4793V7.64465H28.4718H28.4644V7.65204H28.457V7.65942H28.4496L28.4422 7.66681H28.4347L28.4273 7.6742H28.4199L28.4125 7.68159L28.4051 7.68898H28.3976L28.3902 7.69637C29.8048 8.46595 30.9829 9.4995 32.2062 10.5727L32.2711 10.6296C33.4583 11.6862 34.6901 12.7723 36.2187 13.718C38.6897 15.2474 41.9991 15.7129 44.6705 14.4125C45.3531 14.08 46.0358 13.622 46.6814 13.0087L46.7036 12.9939L46.711 12.9792H46.7185C47.1859 12.5137 47.6015 12.0113 47.9577 11.4941C48.3064 10.9769 48.5884 10.4449 48.7887 9.90553C49.1004 9.0928 49.2265 8.42044 49.1894 7.89586V7.88847C49.1523 7.40083 48.9891 7.01662 48.6997 6.75064C48.4103 6.47726 48.0244 6.32949 47.5495 6.31471C47.0227 6.29994 46.3697 6.44771 45.6128 6.76541C45.0786 6.98707 44.5443 7.27522 44.0175 7.62248L43.9804 7.64465ZM42.9935 19.4515C42.4072 18.3802 41.873 17.0724 41.6355 15.6907C41.3981 15.6981 41.1606 15.6981 40.9158 15.6981C40.8555 15.6944 40.7952 15.6925 40.734 15.6907L40.7339 15.6907H40.7339C40.6745 15.6888 40.6142 15.687 40.5522 15.6834C40.797 17.2719 41.3981 18.757 42.0511 19.9539C43.0899 21.8823 44.3959 23.8107 45.5906 25.5692C45.7842 25.8551 46.0224 26.1924 46.286 26.5657L46.2861 26.5659L46.2862 26.566L46.2862 26.5661L46.2863 26.5661C47.4668 28.2381 49.1568 30.6319 49.6421 32.3592C49.9018 33.2754 50.065 34.3246 50.0873 35.3959V35.3961C50.0873 35.662 50.0873 35.928 50.0725 36.1939C50.4732 35.987 50.8516 35.7727 51.1558 35.5659V35.3811C51.1336 34.2359 50.9555 33.1055 50.6735 32.108C50.1526 30.224 48.6362 28.0609 47.3489 26.2244C47.0409 25.785 46.746 25.3644 46.481 24.9707C45.2938 23.227 44.0026 21.3208 42.9935 19.4515ZM49.9834 24.9412C49.835 26.1012 49.5308 27.1725 49.1523 28.0074C49.3749 28.3399 49.5976 28.6945 49.8202 29.0492C50.3544 28.0887 50.8071 26.7218 51.0223 25.2293C51.3413 23.0128 51.1113 20.4785 49.8795 18.5944C49.553 18.092 49.1523 17.6339 48.67 17.2276L48.6329 17.198C48.4845 17.0724 48.3213 16.9542 48.158 16.8433L48.1506 16.836H48.1432L48.1358 16.8286H48.1283L48.1209 16.8212L48.1135 16.8138H48.1061C47.7425 16.5995 47.364 16.4296 46.9782 16.304C46.5997 16.1858 46.2213 16.1119 45.8429 16.0897C45.2789 16.0676 44.8189 16.1267 44.4775 16.267C44.1213 16.4074 43.8691 16.6291 43.7206 16.9098C43.5648 17.198 43.5351 17.5231 43.6168 17.8851C43.6984 18.225 43.8987 18.6018 44.2104 18.9934C45.3754 20.4563 46.7333 20.944 48.2322 21.476L48.2693 21.4833C48.3444 21.5107 48.4201 21.538 48.4962 21.5655L48.4962 21.5655L48.4967 21.5656C48.8115 21.6793 49.134 21.7958 49.4566 21.9267C49.4269 21.7345 49.3898 21.5351 49.3378 21.343C49.2859 21.1139 49.2265 20.8849 49.1523 20.6706L48.6255 20.4859L48.5884 20.4711L48.5798 20.468C47.2401 19.989 46.0189 19.5523 45.0489 18.3358C44.8337 18.0698 44.7076 17.8334 44.663 17.6413C44.6334 17.5379 44.6408 17.4566 44.663 17.4049C44.6927 17.3458 44.7595 17.3014 44.8708 17.2571C45.0786 17.1684 45.3828 17.1315 45.7835 17.1537C46.0729 17.1684 46.3623 17.2276 46.6517 17.3162C46.9559 17.4197 47.2602 17.5526 47.5644 17.73H47.5718C47.7054 17.826 47.8389 17.9221 47.9577 18.0181L47.9799 18.0403C48.2916 18.2989 48.5587 18.587 48.7887 18.8974C50.0799 20.6189 50.258 22.8724 49.9834 24.9412ZM54.5247 24.7121C53.7604 23.4782 52.7289 22.5103 51.5714 21.801L51.5788 21.8749C51.6233 22.2961 51.653 22.732 51.6753 23.1605C52.4247 23.7294 53.1 24.4314 53.6194 25.2663C54.3243 26.4115 54.7695 27.8153 54.7992 29.4925V29.5073C54.7695 31.1845 54.3243 32.5883 53.6194 33.7261C52.9738 34.7605 52.1131 35.588 51.141 36.2087C50.7997 36.4155 50.4138 36.6224 50.0131 36.8145V36.8219C49.4235 37.1008 48.8412 37.3067 48.2808 37.505L48.2693 37.509L48.2322 37.5238C47.2305 37.8785 46.2881 38.2183 45.4273 38.839C44.7298 39.334 43.8245 40.2576 43.6168 41.1146C43.5351 41.4693 43.5648 41.8018 43.7206 42.0899C43.8691 42.3707 44.1213 42.5923 44.4775 42.7327C45.8132 43.2647 47.5199 42.7179 48.6329 41.7944L48.67 41.7722C49.7979 40.8265 50.4806 39.563 50.8368 38.1814C50.399 38.3883 49.9463 38.5878 49.5308 38.7577C49.1969 39.6 48.6997 40.3536 47.9799 40.9521L47.9577 40.9816C47.8389 41.0777 47.7054 41.1737 47.5718 41.2624V41.2698H47.5644C46.993 41.5949 46.1323 41.9939 45.4199 41.9126C44.3811 41.8018 44.3959 40.9816 45.9022 39.8216C46.6962 39.201 47.6089 38.8759 48.5884 38.5286L48.6255 38.5139C49.3304 38.2627 50.065 37.9967 50.8368 37.6051H50.8442C52.2911 36.8662 53.6045 35.7727 54.5247 34.2876C55.3335 32.9946 55.8306 31.4061 55.8677 29.522V29.4999V29.4925V29.4777C55.8306 27.5863 55.3335 26.0051 54.5247 24.7121ZM42.5037 50.1286L42.5186 50.1508C43.4016 51.03 44.4553 51.7541 45.6128 52.2343C46.3697 52.5447 47.0227 52.6924 47.5495 52.6777C48.0244 52.6629 48.4103 52.5225 48.6997 52.2491C48.9891 51.9757 49.1523 51.5989 49.1894 51.1113V51.1039C49.2265 50.5793 49.1004 49.907 48.7887 49.0868C48.3584 47.9342 47.5866 46.8851 46.7185 46.0206L46.711 46.0132L46.7036 46.0058L46.6814 45.9837C45.2196 44.6168 43.6242 44.0109 42.0956 43.8558C42.0733 44.0035 42.0511 44.1587 42.0437 44.3139C42.0288 44.5207 42.0214 44.7202 42.0288 44.9197C43.3348 45.0601 44.6927 45.5847 45.9542 46.7595L45.9616 46.7668C46.7259 47.5352 47.4086 48.4514 47.7944 49.4637C48.0393 50.1286 48.1432 50.6458 48.1209 51.03V51.0374C48.1061 51.2443 48.0541 51.3921 47.9577 51.4807C47.8686 51.562 47.7202 51.6137 47.5199 51.6137C47.1414 51.6285 46.6368 51.5029 46.021 51.2517C45.0044 50.8231 44.0694 50.1803 43.2828 49.4045C42.0585 48.0229 41.5687 46.5156 41.5168 45.0379C41.4426 43.0209 42.1698 41.0555 42.9935 39.5409C44.0026 37.679 45.2938 35.7653 46.481 34.0217L46.5799 33.8755C47.2781 32.8433 47.9388 31.8667 48.4845 30.9776C48.3064 30.6451 48.1061 30.2978 47.8909 29.958L47.8686 29.921C47.275 30.9406 46.4662 32.1376 45.5906 33.4232L45.5724 33.45C44.3827 35.2086 43.0847 37.1272 42.0511 39.0385C41.1606 40.6787 40.3667 42.8362 40.4483 45.0749C40.5076 46.7816 41.079 48.5253 42.4814 50.1064L42.5037 50.1286ZM31.6552 56.5197C30.6905 57.3398 29.4291 57.8792 27.9302 57.8792C26.4387 57.8792 25.1698 57.3398 24.2126 56.5197H24.2052C23.8861 56.2463 23.5967 55.9434 23.3444 55.6183C22.5103 54.5467 22.3357 53.7199 22.1188 52.6927C22.0366 52.3034 21.9484 51.8853 21.8158 51.4142C21.7045 51.0226 21.5709 50.631 21.4003 50.2468C20.9847 49.3454 20.3688 48.4736 19.3893 47.6978C19.0035 47.3949 18.6325 47.2028 18.2986 47.1141L18.2689 47.1067C17.9275 47.0328 17.6085 47.055 17.3339 47.188L17.2894 47.2102C17.0074 47.3579 16.7922 47.6091 16.6512 47.9638C16.5103 48.311 16.4435 48.7617 16.4732 49.3233C16.4954 49.7001 16.5696 50.0843 16.6883 50.4537C16.8145 50.8379 16.9852 51.2221 17.2003 51.5842C17.2078 51.6063 17.2226 51.6285 17.2375 51.6433C17.371 51.8501 17.5194 52.0422 17.6678 52.2196L17.6975 52.2491C18.6102 53.3352 19.6936 53.9706 20.8363 54.281L20.8066 54.1849C20.6879 53.7859 20.584 53.3796 20.5172 53.0471C19.79 52.7442 19.1074 52.2713 18.5138 51.5694L18.4841 51.5324C18.3579 51.3847 18.2318 51.2147 18.1131 51.0374V51.03L18.1056 51.0226C17.935 50.7345 17.8014 50.4315 17.7049 50.1286C17.6085 49.8405 17.5565 49.5523 17.5417 49.2715V49.2642V49.2568C17.5194 48.8652 17.5565 48.5623 17.6382 48.3554C17.6827 48.2519 17.7346 48.178 17.794 48.1485L17.8014 48.1411C17.8533 48.1263 17.935 48.1263 18.024 48.1485L18.0463 48.1559C18.2392 48.2002 18.4692 48.3258 18.7215 48.5327C19.5526 49.1903 20.0794 49.9217 20.4208 50.6901C20.5766 51.0374 20.7028 51.3921 20.7992 51.7541C20.9297 52.2256 21.0289 52.6421 21.1196 53.023C21.4722 54.5039 21.6964 55.4453 23.1366 56.9852C23.2553 57.1034 23.3815 57.2216 23.5151 57.3324C24.6578 58.3003 26.1567 58.9431 27.9302 58.9431C29.7036 58.9431 31.21 58.3003 32.3527 57.3324C33.1244 56.6748 33.7329 55.8695 34.1558 55.0124L34.1187 55.0198C33.7106 55.0641 33.3025 55.0863 32.9092 55.0715C32.5753 55.6035 32.1598 56.0985 31.6552 56.5197ZM38.1702 52.2491L38.1925 52.2196C38.8826 51.3994 39.3426 50.3946 39.3946 49.3233C39.4243 48.7617 39.3575 48.311 39.2165 47.9638C38.9419 47.2693 38.3261 46.9368 37.5914 47.1067L37.5692 47.1141C37.2353 47.2028 36.8643 47.3949 36.4784 47.6978C35.4989 48.4736 34.8756 49.3454 34.4675 50.2468C34.0742 51.1187 33.8813 52.0127 33.7254 52.8993C33.8565 52.8924 33.9876 52.8728 34.1246 52.8523L34.1247 52.8523L34.1558 52.8476C34.3933 52.8033 34.6381 52.7442 34.8608 52.6555C34.9869 51.9905 35.1576 51.3182 35.447 50.6901C35.7883 49.9217 36.3077 49.1903 37.1388 48.5327C38.0367 47.8234 38.3854 48.0524 38.3261 49.2568V49.2642V49.2715C38.2815 50.1286 37.9179 50.8896 37.3837 51.5324L37.354 51.5694C36.8643 52.1457 36.3151 52.5742 35.7289 52.8698C34.2671 53.616 32.553 53.5791 31.017 53.1357C30.4605 52.9732 29.9411 52.7589 29.481 52.5151C29.1397 52.7294 28.7909 52.9436 28.4496 53.1431L28.4347 53.1505C29.1323 53.5791 29.9856 53.9559 30.9057 54.2071C32.6272 54.6652 34.3562 54.6799 35.9887 53.9337C36.7752 53.5717 37.5172 53.0249 38.1702 52.2491ZM12.8372 56.1946C12.7778 55.9138 12.763 55.6183 12.7778 55.3227C12.7927 54.9977 12.8446 54.6578 12.9411 54.3179C13.0301 53.978 13.1488 53.6603 13.2973 53.3722C13.4382 53.1062 13.6015 52.855 13.7944 52.6481C14.0467 52.3673 14.2767 52.1826 14.4771 52.0866C14.581 52.0349 14.6626 52.0201 14.722 52.0349C14.7739 52.057 14.8333 52.1087 14.9 52.2048C15.0113 52.3821 15.1004 52.6481 15.1598 52.9954C15.2117 53.2983 15.2265 53.616 15.2117 53.9411C15.1969 54.244 15.1523 54.5617 15.0633 54.8868C14.9742 55.2119 14.8555 55.5148 14.7145 55.7882C14.5661 56.0764 14.388 56.3424 14.1951 56.5788C13.9651 56.8522 13.7573 57.0369 13.5718 57.1329C13.4753 57.1847 13.3937 57.1994 13.3344 57.1847C13.2824 57.1773 13.2156 57.1182 13.1488 57.0221L13.134 56.9999C13.0153 56.8226 12.9188 56.5566 12.8372 56.1946ZM4.00698 46.5895C3.70275 46.6043 3.40594 46.5821 3.12396 46.523C2.76037 46.4417 2.49323 46.3457 2.31515 46.2275L2.29289 46.2127C2.19642 46.1462 2.13706 46.0871 2.12964 46.028C2.1148 45.9763 2.12964 45.9098 2.16674 45.8211L2.189 45.7916C2.27804 45.6142 2.45613 45.4147 2.70842 45.2005L2.73811 45.1783C2.97556 44.9788 3.24269 44.8015 3.53208 44.6537C3.80663 44.5133 4.11087 44.3951 4.43736 44.3065C4.76386 44.2252 5.08293 44.1735 5.39459 44.1587C5.71366 44.1439 6.03274 44.1587 6.34439 44.2178C6.68573 44.2695 6.95286 44.3582 7.13095 44.4764C7.22741 44.5355 7.28677 44.5946 7.30162 44.6463C7.31646 44.7054 7.30162 44.7867 7.24967 44.8902C7.16063 45.0823 6.98254 45.3039 6.71541 45.5477L6.68573 45.5699C6.47796 45.762 6.22567 45.9246 5.95853 46.0649C5.66914 46.2127 5.35007 46.3309 5.00873 46.427C4.66739 46.5156 4.32606 46.5747 4.00698 46.5895ZM2.90135 47.5648C3.26495 47.6387 3.65823 47.6682 4.05151 47.6461C4.45962 47.6313 4.87516 47.5648 5.28328 47.454C5.6914 47.3431 6.07726 47.1954 6.44086 47.0107H6.44828C6.79703 46.8333 7.12353 46.6117 7.39808 46.3605L7.43518 46.3309C7.81362 45.9911 8.07333 45.6586 8.21432 45.3482C8.38498 44.9936 8.41467 44.6611 8.32562 44.3508C8.22916 44.0331 8.02139 43.7745 7.70231 43.575C7.41292 43.3903 7.01222 43.2499 6.52248 43.1612C6.14404 43.1021 5.75076 43.0726 5.34265 43.0947C4.94937 43.1169 4.55609 43.176 4.16281 43.2795C3.76953 43.3829 3.3911 43.5307 3.04976 43.708H3.04234C2.67874 43.8927 2.35225 44.1144 2.05543 44.3508L2.02575 44.3804C1.65474 44.6907 1.39502 45.001 1.2392 45.2965L1.21694 45.3482C1.06111 45.666 1.01659 45.9763 1.09079 46.2718C1.16499 46.5895 1.36534 46.8703 1.68442 47.0919L1.7141 47.1067C2.00349 47.3062 2.40419 47.454 2.90135 47.5648ZM4.05151 11.3463C3.65823 11.3315 3.26495 11.3537 2.90135 11.435C2.40419 11.5384 2.00349 11.6936 1.7141 11.8857L1.68442 11.9078C1.36534 12.1295 1.16499 12.4029 1.09079 12.7206C1.01659 13.0235 1.06111 13.3338 1.21694 13.6515L1.2392 13.6958C1.39502 13.9988 1.65474 14.3017 2.02575 14.612L2.05543 14.6416C2.35225 14.8854 2.67874 15.107 3.04234 15.2918H3.04976C3.3911 15.4691 3.76953 15.6169 4.16281 15.7203C4.55609 15.8237 4.94937 15.8828 5.34265 15.905C5.75076 15.9198 6.14404 15.8976 6.52248 15.8311C7.01222 15.7499 7.41292 15.6095 7.70231 15.4248C8.02139 15.2253 8.22916 14.9593 8.32562 14.649C8.41467 14.3386 8.38498 13.9988 8.21432 13.6515C8.07333 13.3412 7.81362 13.0087 7.43518 12.6614L7.39808 12.6319C7.12353 12.3807 6.79703 12.1664 6.44828 11.9817V11.9891L6.44086 11.9817C6.07726 11.797 5.6914 11.6492 5.28328 11.5458C4.87516 11.435 4.45962 11.3685 4.05151 11.3463ZM3.12396 12.4767C3.40594 12.4176 3.70275 12.3955 4.00698 12.4102C4.32606 12.425 4.66739 12.4841 5.00873 12.5728C5.35007 12.6615 5.66914 12.7871 5.95853 12.9274C6.22567 13.0678 6.47796 13.2378 6.68573 13.4225L6.71541 13.4446C6.98254 13.6958 7.16063 13.9175 7.24967 14.1022C7.30162 14.213 7.31646 14.2943 7.30162 14.3534C7.28677 14.4051 7.22741 14.4642 7.13095 14.5234C6.95286 14.6342 6.68573 14.7228 6.34439 14.782C6.03274 14.8337 5.71366 14.8558 5.39459 14.8411C5.08293 14.8263 4.76386 14.7746 4.43736 14.6859C4.11087 14.6046 3.80663 14.4864 3.53208 14.346C3.24269 14.1983 2.97556 14.0209 2.73811 13.8214L2.70842 13.7993C2.45613 13.585 2.27804 13.3855 2.189 13.2082L2.16674 13.1713C2.12964 13.09 2.1148 13.0161 2.12964 12.9644C2.13706 12.9127 2.19642 12.8536 2.29289 12.7797L2.31515 12.7649C2.49323 12.6541 2.76037 12.5506 3.12396 12.4767ZM12.7778 3.67701C12.763 3.37408 12.7778 3.07854 12.8372 2.79778C12.9188 2.44313 13.0153 2.16976 13.134 1.99243L13.1488 1.97765C13.2156 1.87422 13.2824 1.8225 13.3344 1.80772C13.3937 1.79294 13.4753 1.81511 13.5718 1.86683C13.7573 1.96288 13.9651 2.14759 14.1951 2.42097C14.388 2.65001 14.5661 2.916 14.7145 3.21154C14.8555 3.48491 14.9742 3.78045 15.0633 4.10555C15.1523 4.43064 15.1969 4.74835 15.2117 5.05867C15.2265 5.38376 15.2117 5.69408 15.1598 5.99701V6.0044C15.1004 6.35166 15.0113 6.61764 14.9 6.78758C14.8333 6.88363 14.7739 6.94274 14.722 6.95752C14.6626 6.97229 14.581 6.95751 14.4771 6.91318C14.2767 6.81713 14.0467 6.63242 13.7944 6.35166C13.6015 6.13739 13.4382 5.89357 13.2973 5.62019C13.1488 5.33943 13.0301 5.01434 12.9411 4.67446C12.8446 4.33459 12.7927 3.99472 12.7778 3.67701ZM11.7909 2.57612C11.7167 2.94555 11.687 3.32975 11.7093 3.72873C11.7241 4.1351 11.7983 4.54886 11.9022 4.94784C12.0135 5.35421 12.1619 5.7458 12.3474 6.10784C12.5255 6.4551 12.7481 6.78019 13.0004 7.06095C13.3566 7.45255 13.6979 7.72592 14.017 7.87369C14.3732 8.03624 14.7145 8.07318 15.0188 7.97713H15.0262C15.3378 7.88847 15.5976 7.68159 15.7979 7.36388C15.9908 7.06834 16.1318 6.66936 16.2134 6.18172V6.16694C16.2728 5.79752 16.3025 5.40593 16.2802 5.00695C16.258 4.62274 16.1986 4.22376 16.0947 3.83217C15.9908 3.44058 15.8424 3.07116 15.6643 2.7239C15.4788 2.36186 15.2636 2.03676 15.0113 1.74122C14.6997 1.35702 14.3806 1.08364 14.069 0.921097C13.7351 0.751161 13.4011 0.699442 13.0895 0.773327C12.7704 0.847212 12.4959 1.0467 12.2732 1.36441L12.251 1.40135C12.0581 1.6895 11.9022 2.08109 11.7909 2.57612ZM11.8874 51.3477C12.3771 51.0152 12.8595 50.6236 13.3195 50.1803V50.173L13.3269 50.1656L13.364 50.1286C14.6849 48.6583 15.2711 47.0402 15.3972 45.4517L15.2933 45.4369C14.9668 45.3926 14.6329 45.3778 14.3287 45.3926C14.2174 46.7595 13.7054 48.1485 12.5701 49.4193C12.1619 49.8183 11.7316 50.1656 11.2863 50.4685L11.2492 50.498C10.7966 50.801 10.3217 51.0522 9.84679 51.2517C9.2309 51.5029 8.72632 51.6285 8.34788 51.6137C8.14753 51.6137 7.99913 51.562 7.90266 51.4807C7.81362 51.3921 7.76168 51.2443 7.74684 51.0374V51.03C7.72457 50.6458 7.82846 50.1286 8.07333 49.4637C8.25142 48.9982 8.48887 48.5401 8.7931 48.1042C9.10476 47.6387 9.4832 47.1954 9.90616 46.7668L9.91358 46.7595C10.4627 46.2496 11.034 45.8581 11.6054 45.5699C14.0096 44.3656 16.8516 44.8089 19.0851 46.1832C20.5469 47.0919 21.7416 48.1411 22.8918 49.1607C24.0122 50.1508 25.103 51.1113 26.3793 51.8945H26.3867L26.3942 51.8871H26.4016L26.409 51.8797H26.4164H26.4238V51.8723H26.4313L26.4535 51.8649L26.4609 51.8575H26.4684L26.4832 51.8501L26.4906 51.8428H26.498H26.5055L26.5203 51.8354L26.5351 51.828V51.8206C26.7948 51.695 27.0546 51.5546 27.292 51.4142H27.2994L27.3069 51.4068V51.3994H27.3143L27.3217 51.3921H27.3291H27.3365V51.3847H27.344L27.3514 51.3773H27.3588L27.3662 51.3699H27.3736V51.3625H27.3811L27.3885 51.3551L27.3959 51.3477H27.4033H27.4107V51.3403L27.4182 51.3329H27.4256L27.433 51.3256H27.4404L27.4478 51.3182H27.4553L27.4627 51.3108L27.4701 51.3034H27.4775C26.0425 50.5227 24.8508 49.4703 23.6084 48.3731L23.5967 48.3628C22.4094 47.3136 21.1777 46.2275 19.6491 45.2817C17.1707 43.7523 13.8612 43.2795 11.1973 44.5872C10.5146 44.9197 9.83195 45.3778 9.18638 45.9837L9.16412 46.0058L9.1567 46.0132L9.14928 46.0206C8.6818 46.4861 8.26626 46.9885 7.91008 47.5057C7.56133 48.0155 7.27935 48.5549 7.07158 49.0868C6.76735 49.907 6.6412 50.5793 6.67831 51.1039V51.1113C6.71541 51.5989 6.87866 51.9757 7.16805 52.2491C7.45744 52.5225 7.8433 52.6629 8.3182 52.6777C8.84505 52.6924 9.49804 52.5447 10.2549 52.2343C10.7892 52.0127 11.3234 51.7245 11.8503 51.3773L11.8874 51.3477ZM12.8743 39.5409C13.4605 40.6122 13.9948 41.92 14.2322 43.309C14.4622 43.3016 14.7071 43.2942 14.952 43.3016C15.064 43.3016 15.1761 43.3082 15.2944 43.3152H15.2944H15.2945H15.2945H15.2946L15.3156 43.3164C15.0707 41.7279 14.4697 40.2428 13.8167 39.0385C12.7831 37.1272 11.4851 35.2086 10.2954 33.4501L10.2953 33.45L10.2772 33.4232C10.0883 33.1458 9.85722 32.8192 9.60148 32.4579C8.42013 30.7887 6.71365 28.3776 6.22567 26.6405C5.96595 25.7243 5.79529 24.6678 5.78045 23.5965C5.77303 23.3305 5.78045 23.0645 5.79529 22.7985C5.39459 23.0128 5.01615 23.227 4.71192 23.4339V23.6186C4.73418 24.7638 4.91227 25.8943 5.19424 26.8917C5.72214 28.8009 7.26723 30.9967 8.56762 32.8447C8.85747 33.2567 9.13517 33.6513 9.38673 34.0217C10.574 35.7653 11.8651 37.679 12.8743 39.5409ZM5.87691 34.0512C6.03274 32.8986 6.33697 31.8199 6.71541 30.9924C6.4928 30.6525 6.27019 30.3052 6.04758 29.9506C5.51331 30.9111 5.06067 32.278 4.84548 33.7704C4.52641 35.987 4.75644 38.5139 5.98079 40.3979C6.31471 40.9004 6.71541 41.3658 7.19773 41.7722L7.22741 41.7944C7.38324 41.92 7.54649 42.0382 7.70973 42.149L7.71715 42.1564L7.72457 42.1638H7.732V42.1712L7.74684 42.1786H7.75426L7.76168 42.186C8.12527 42.3928 8.50371 42.5702 8.88957 42.6884C9.26801 42.8066 9.64644 42.8879 10.0249 42.9026C10.5888 42.9322 11.0415 42.8731 11.3902 42.7327C11.7464 42.5923 11.9987 42.3707 12.1471 42.0899C12.2955 41.8018 12.3326 41.4693 12.251 41.1146C12.1694 40.7674 11.969 40.3906 11.6574 39.999C10.4924 38.5434 9.13444 38.0558 7.63553 37.5238L7.59843 37.509C7.21257 37.376 6.81187 37.2283 6.41117 37.0657C6.44086 37.2652 6.47796 37.4647 6.52248 37.6568L6.52249 37.6568C6.58185 37.8859 6.64121 38.1149 6.71541 38.3218L7.24225 38.5139L7.27935 38.5286L7.288 38.5317C8.62769 39.0108 9.84888 39.4474 10.8189 40.6639C11.0266 40.9299 11.1602 41.1663 11.2047 41.3584C11.227 41.4619 11.227 41.5432 11.2047 41.5949C11.175 41.6466 11.1008 41.6983 10.9969 41.7426C10.7892 41.8239 10.4849 41.8609 10.0842 41.8387C9.79485 41.8313 9.50546 41.7722 9.21606 41.6762C8.91183 41.5801 8.60017 41.4397 8.30336 41.2698H8.29594V41.2624C8.16238 41.1737 8.02881 41.0777 7.91008 40.9816L7.8804 40.9521C7.57617 40.6935 7.30904 40.4127 7.07901 40.1024C5.78787 38.3809 5.60978 36.12 5.87691 34.0512ZM1.34308 34.2876C2.10738 35.5215 3.1388 36.482 4.29638 37.1987L4.28896 37.1174C4.24444 36.6963 4.21475 36.2604 4.19249 35.8392C3.43562 35.2703 2.76779 34.5684 2.24836 33.7261C1.54343 32.5883 1.09821 31.1845 1.06853 29.5073V29.4925C1.09821 27.8153 1.54343 26.4115 2.24836 25.2663C2.89393 24.2319 3.75469 23.4117 4.72676 22.7911C5.06809 22.5842 5.45395 22.3773 5.85465 22.1779V22.1705C6.38117 21.928 6.90185 21.7378 7.40634 21.5536L7.59843 21.4833L7.63553 21.476L7.71026 21.449L7.71028 21.4489C8.68418 21.0972 9.6011 20.766 10.4404 20.1608C11.1379 19.6584 12.0432 18.7348 12.251 17.8851C12.3326 17.5231 12.2955 17.198 12.1471 16.9098C11.9987 16.6291 11.7464 16.4074 11.3902 16.267C10.0546 15.7351 8.34788 16.2818 7.22741 17.198L7.19773 17.2276C6.06984 18.1733 5.37975 19.4367 5.02357 20.811C5.46879 20.6041 5.92143 20.412 6.32955 20.2421C6.67089 19.3998 7.16805 18.6388 7.8804 18.0403L7.91008 18.0181C8.0288 17.9221 8.16236 17.826 8.29592 17.73L8.29594 17.73H8.30336C8.87473 17.3975 9.73549 17.0059 10.4478 17.0798C11.4793 17.1906 11.4718 18.0181 9.96552 19.1781C9.17987 19.7922 8.2707 20.117 7.30992 20.4602L7.27935 20.4711L7.24225 20.4859L7.18945 20.5047L7.18943 20.5047C6.50064 20.7501 5.78327 21.0057 5.02357 21.3947V21.3873C3.5766 22.1261 2.2632 23.227 1.34308 24.7121C0.534264 26.0051 0.0296814 27.5863 0 29.4777V29.4925V29.4999V29.522C0.0296814 31.4061 0.534264 32.9946 1.34308 34.2876ZM13.3492 8.84898L13.3418 8.84159C12.4588 7.96235 11.4051 7.24567 10.2549 6.76541C9.49804 6.44771 8.84505 6.29994 8.3182 6.31471C7.8433 6.32949 7.45744 6.47726 7.16805 6.75064C6.87866 7.01662 6.71541 7.40083 6.67831 7.88847V7.89586C6.6412 8.42044 6.76735 9.0928 7.07158 9.90553C7.50938 11.0581 8.2811 12.1073 9.14928 12.9792H9.1567L9.16412 12.9939L9.18638 13.0087C10.6482 14.3756 12.2436 14.9888 13.7722 15.144C13.7944 14.9962 13.8167 14.8337 13.8241 14.6785C13.8389 14.479 13.8464 14.2795 13.8389 14.08C12.533 13.9397 11.175 13.4077 9.91358 12.2329L9.90616 12.2255C9.14186 11.4645 8.45919 10.5483 8.07333 9.53611C7.82846 8.87114 7.72457 8.34656 7.74684 7.96974V7.96235C7.76168 7.75548 7.81362 7.60032 7.90266 7.51904C7.99913 7.43038 8.14753 7.38605 8.34788 7.37866C8.72632 7.37127 9.2309 7.48949 9.84679 7.74809C10.8634 8.16923 11.7983 8.81942 12.5849 9.59522C13.8093 10.9695 14.299 12.4841 14.3509 13.9618C14.4251 15.9715 13.6979 17.9442 12.8743 19.4515C11.8651 21.3208 10.574 23.227 9.38673 24.9707L9.14535 25.3297L9.14529 25.3298L9.14521 25.33L9.14515 25.33C8.4998 26.2896 7.89159 27.1939 7.38324 28.0222C7.56133 28.3547 7.76168 28.7019 7.97687 29.0418L7.99913 29.0787C8.59275 28.0517 9.40157 26.8548 10.2772 25.5692C11.4718 23.8107 12.7778 21.8823 13.8167 19.9539C14.7071 18.3211 15.5011 16.1636 15.4195 13.9249C15.3601 12.2181 14.7887 10.4744 13.3863 8.89331L13.364 8.87114L13.3492 8.84898ZM17.6975 6.74325L17.6678 6.78019C16.9852 7.60032 16.5251 8.59777 16.4732 9.67649C16.4435 10.2306 16.5103 10.6887 16.6512 11.036C16.9258 11.7305 17.5417 12.063 18.2689 11.8857L18.2986 11.8783C18.6325 11.797 19.0035 11.5975 19.3893 11.2946C20.3688 10.5188 20.9847 9.65432 21.4003 8.74554C21.7935 7.88108 21.9865 6.97968 22.1349 6.10045C22.0013 6.10784 21.8603 6.12261 21.7119 6.15217C21.4745 6.18911 21.2296 6.25561 21.007 6.34427C20.8808 7.00923 20.7102 7.6742 20.4208 8.30961C20.0794 9.07802 19.5526 9.80948 18.7215 10.4597C17.8311 11.169 17.4823 10.9399 17.5417 9.74299V9.72821C17.5788 8.87114 17.9498 8.11012 18.4841 7.45993L18.5138 7.43038C19.0035 6.84669 19.5526 6.42554 20.1388 6.12261C21.6006 5.38376 23.3147 5.41332 24.8507 5.86401C25.4072 6.02656 25.9267 6.24083 26.3867 6.47726C26.4812 6.42002 26.5756 6.36221 26.6702 6.30431C26.9175 6.15294 27.1659 6.00092 27.4182 5.85663L27.433 5.84185C26.7355 5.4207 25.8821 5.04389 24.9546 4.79268C23.2331 4.3272 21.5116 4.31243 19.8791 5.06606C19.0925 5.42809 18.3505 5.97484 17.6975 6.74325ZM32.8202 21.7789L32.7534 21.7346L30.0153 25.2072C29.9784 25.1442 29.9377 25.0849 29.8959 25.024L29.8959 25.0239C29.8789 24.9992 29.8618 24.9742 29.8446 24.9486C28.2196 22.6508 26.2532 21.7346 23.2034 21.7346H22.8027H22.3649H19.5526V22.4882C20.6657 22.5769 20.8883 23.3305 20.8883 24.2837V26.5593V34.3099V34.7089C20.8883 35.7063 20.6879 36.3713 19.5749 36.5043V37.2653H20.8883H21.6971H21.9791L28.3531 29.1896C28.3309 28.5986 28.2715 28.0592 28.1676 27.5642L22.8695 34.2951L22.8027 22.5991C24.309 22.6139 29.021 23.1902 29.021 29.5664C29.021 34.6571 26.1567 36.024 23.8861 36.3195L23.0921 37.2653H23.2257C26.2309 37.2653 27.8189 36.5708 29.2881 34.9083C31.0912 32.8691 31.2471 30.5861 31.2471 29.6329C31.2471 28.3104 30.9874 27.2169 30.6015 26.3155L32.6866 23.663L32.9537 23.2788C33.0205 23.4192 33.0651 23.5744 33.0799 23.7369H33.0873V23.8403V24.5496V25.9239V34.7089C33.0873 35.662 32.8202 36.4156 31.7517 36.5043V37.2653H36.3152V36.5043C35.2021 36.3713 35.0018 35.7063 35.0018 34.7089V24.2837C35.0018 23.3084 35.2244 22.5991 36.3152 22.4882V21.7346H32.8647L32.8202 21.7789ZM70.6714 34.9453C70.6194 34.3099 70.5007 33.6966 70.3152 33.1055C70.1297 32.5071 69.9145 32.1229 69.677 31.9381C69.4396 31.7534 69.1131 31.6574 68.7124 31.6574H63.2139C62.5906 31.6574 62.138 31.9381 61.856 32.4923C61.574 33.0538 61.3885 33.8665 61.3069 34.9453H60.3645V30.8151H61.2698C62.2567 29.6034 63.0581 28.0148 63.674 26.0569C64.2973 24.0989 64.6015 22.3552 64.6015 20.8332C64.6015 20.4121 64.5422 20.1239 64.416 19.9466C64.2973 19.7693 64.0524 19.6584 63.6814 19.6141V19.1634H71.213V19.6141C70.7901 19.7175 70.5007 19.8505 70.3523 20.0131C70.2039 20.183 70.1297 20.6633 70.1297 21.4612V30.8151H71.6063V34.9453H70.6714ZM68.4082 19.9687H65.8259C65.4549 24.6605 64.3938 28.2734 62.6351 30.8151H68.4082V19.9687ZM76.2589 29.3448C76.2589 29.6994 76.2811 29.9876 76.3182 30.2018C76.3553 30.4161 76.4221 30.586 76.5037 30.7116C76.5854 30.8372 76.6967 30.9333 76.8377 31.0072C76.9786 31.0737 77.2013 31.1402 77.4981 31.2067V31.6574H73.4614V31.2067C73.8473 31.1106 74.0995 31.0072 74.2257 30.8816C74.3593 30.7634 74.4409 30.5934 74.478 30.3792C74.5225 30.1575 74.5374 29.8176 74.5374 29.3743V21.4538C74.5374 21.0327 74.5225 20.7224 74.4928 20.5377C74.4632 20.3382 74.4112 20.1904 74.3444 20.087C74.2702 19.9761 74.1812 19.8949 74.0624 19.8284C73.9437 19.7693 73.7434 19.6954 73.4614 19.6141V19.1634H78.0249C79.457 19.1634 80.5256 19.4368 81.2305 19.9835C81.928 20.5303 82.2768 21.3652 82.2768 22.4734C82.2768 23.1163 82.1729 23.6852 81.9503 24.1876C81.7277 24.6974 81.416 25.1111 81.0153 25.4362C80.6072 25.754 80.1323 25.9904 79.5758 26.1308C79.0267 26.2711 78.4479 26.3376 77.8394 26.3376C77.1567 26.3376 76.6299 26.3303 76.2589 26.3007V29.3448ZM76.2589 25.5471H77.3274C78.0175 25.5471 78.5889 25.451 79.0415 25.2737C79.4867 25.0964 79.8355 24.7934 80.0729 24.3797C80.3104 23.9585 80.4291 23.4044 80.4291 22.7173C80.4291 22.1927 80.3623 21.7568 80.2213 21.4021C80.0803 21.0549 79.8874 20.7741 79.6351 20.5524C79.3903 20.3456 79.0934 20.1904 78.7521 20.1017C78.4108 20.0131 78.0323 19.9687 77.6316 19.9687C77.0232 19.9687 76.5631 19.9835 76.2589 20.0131V25.5471ZM94.2458 19.6141C93.9341 19.7101 93.6596 19.8875 93.4295 20.1535C93.2069 20.4121 92.8582 21.0401 92.3907 22.0375L89.7787 27.6232C88.9922 29.3152 88.3095 30.4457 87.7381 31.0146C87.1593 31.5835 86.4693 31.8643 85.653 31.8643C85.1559 31.8643 84.6958 31.7978 84.2654 31.6574V29.3226H85.2597C85.3117 30.0319 85.6085 30.3866 86.1576 30.3866C86.8848 30.3866 87.56 29.7955 88.1834 28.6059L85.193 22.0966C84.7255 21.077 84.399 20.4342 84.2061 20.1756C84.0131 19.9096 83.746 19.7249 83.3972 19.6141V19.1634H87.3449V19.6141C86.7587 19.6806 86.4618 19.9244 86.4618 20.3456C86.4618 20.7371 86.6399 21.3356 87.0035 22.141L89.0812 26.781L90.9215 22.5547C91.3147 21.6459 91.5077 20.9662 91.5077 20.5155C91.5077 19.9761 91.2405 19.6732 90.7137 19.6141V19.1634H94.2458V19.6141ZM102.861 22.5547C102.668 21.5794 102.438 20.9145 102.163 20.5524C101.881 20.1904 101.473 20.0131 100.909 20.0131H98.2602V29.3448C98.2602 29.9876 98.3418 30.4457 98.5125 30.7116C98.6757 30.985 99.0542 31.1476 99.6552 31.2067V31.6574H95.4701V31.2067C95.9154 31.1032 96.2047 30.9629 96.3457 30.7781C96.4793 30.5934 96.5461 30.128 96.5461 29.3817V21.4612C96.5461 20.7002 96.4719 20.2273 96.3309 20.0426C96.1899 19.8653 95.9005 19.7175 95.4701 19.6141V19.1634H103.759V22.5547H102.861ZM110.066 31.8051C109.331 31.8051 108.663 31.6795 108.055 31.4431C107.454 31.1993 106.935 30.8299 106.504 30.3201C106.074 29.8102 105.74 29.1527 105.502 28.3621C105.265 27.5715 105.146 26.6258 105.146 25.5175C105.146 24.158 105.354 22.9906 105.777 22.0154C106.193 21.0401 106.786 20.2938 107.565 19.784C108.337 19.2742 109.235 19.0156 110.259 19.0156C111.35 19.0156 112.27 19.2594 113.012 19.7397C113.754 20.2126 114.318 20.9219 114.696 21.8528C115.067 22.7838 115.26 23.9142 115.26 25.2515C115.26 26.6775 115.045 27.8818 114.615 28.8645C114.192 29.8472 113.583 30.586 112.804 31.0737C112.017 31.5613 111.105 31.8051 110.066 31.8051ZM107.038 25.2589C107.038 27.1356 107.32 28.5616 107.862 29.5369C108.411 30.5122 109.213 30.9998 110.266 30.9998C110.934 30.9998 111.505 30.7855 111.966 30.3644C112.433 29.9432 112.782 29.3152 113.012 28.5025C113.249 27.6824 113.368 26.7292 113.368 25.6357C113.368 24.3058 113.227 23.2049 112.952 22.3257C112.685 21.4538 112.314 20.8184 111.839 20.4194C111.365 20.0205 110.815 19.821 110.192 19.821C109.643 19.821 109.168 19.954 108.775 20.2052C108.382 20.4638 108.055 20.8332 107.788 21.3061C107.528 21.7715 107.343 22.3478 107.224 23.0202C107.098 23.6852 107.038 24.4388 107.038 25.2589ZM126.057 19.1634V21.9267H125.159C125.062 21.6312 124.973 21.3652 124.877 21.1435C124.773 20.9145 124.669 20.7298 124.573 20.5746C124.469 20.4194 124.35 20.3012 124.224 20.2052C124.098 20.1165 123.949 20.0574 123.779 20.0205C123.608 19.9835 123.4 19.9687 123.163 19.9687H120.261V24.7639H122.228C122.495 24.7639 122.703 24.7269 122.859 24.6531C123.014 24.5792 123.141 24.4462 123.244 24.2615C123.341 24.0768 123.437 23.7886 123.534 23.4044H124.395V26.9139H123.534C123.445 26.5519 123.348 26.2785 123.244 26.0864C123.141 25.9017 123.022 25.7687 122.873 25.6948C122.732 25.6062 122.517 25.5692 122.228 25.5692H120.261V30.852H123.118C123.415 30.852 123.66 30.8299 123.846 30.7708C124.038 30.7264 124.194 30.6304 124.328 30.5048C124.469 30.3866 124.588 30.224 124.691 30.0245C124.795 29.8176 124.877 29.6108 124.951 29.3891C125.005 29.2151 125.079 28.973 125.173 28.6666L125.241 28.4434H126.153L125.975 31.6574H117.464V31.2067C117.842 31.1106 118.102 31.0072 118.228 30.8816C118.354 30.7634 118.444 30.5934 118.481 30.3792C118.518 30.1575 118.54 29.8176 118.54 29.3743V21.4538C118.54 21.0327 118.525 20.7224 118.495 20.5377C118.466 20.3382 118.414 20.1904 118.34 20.087C118.273 19.9761 118.176 19.8949 118.065 19.8284C117.946 19.7693 117.746 19.6954 117.464 19.6141V19.1634H126.057ZM139.376 31.6574V31.2067C139.844 31.0885 140.133 30.9259 140.259 30.7264C140.378 30.5343 140.437 30.0836 140.437 29.3817V25.4436C140.437 24.158 140.452 23.3305 140.474 22.9611H140.437L135.213 29.3817C135.213 30.1132 135.28 30.5713 135.406 30.7634C135.54 30.9481 135.829 31.0958 136.275 31.2067V31.6574H132.431V31.2067C132.906 31.0885 133.203 30.9259 133.329 30.7264C133.455 30.5343 133.522 30.0836 133.522 29.3817V21.4612C133.522 20.6559 133.44 20.1756 133.284 20.0057C133.121 19.8431 132.839 19.7101 132.431 19.6141V19.1634H136.275V19.6141C135.866 19.7175 135.585 19.8505 135.436 20.0205C135.288 20.1904 135.213 20.6707 135.213 21.4612V25.488C135.213 26.3894 135.191 27.1504 135.154 27.771H135.213L140.437 21.3504C140.437 20.7076 140.378 20.2864 140.252 20.087C140.126 19.8949 139.836 19.7397 139.376 19.6141V19.1634H143.198V19.6141C142.79 19.7175 142.508 19.8505 142.359 20.0205C142.203 20.1904 142.129 20.6707 142.129 21.4612V29.3817C142.129 30.1132 142.196 30.5713 142.33 30.7634C142.463 30.9481 142.753 31.0958 143.198 31.2067V31.6574H139.376ZM145.387 31.2806V28.7241H146.277C146.574 29.5886 146.93 30.1871 147.338 30.5048C147.746 30.8372 148.303 30.9998 149.015 30.9998C149.824 30.9998 150.455 30.7634 150.915 30.2979C151.368 29.8324 151.598 29.1601 151.598 28.2882C151.598 27.5789 151.464 27.0322 151.189 26.648C150.915 26.2638 150.574 26.0126 150.173 25.8943C149.772 25.7761 149.238 25.717 148.578 25.717H147.101V24.6309H148.592C149.557 24.6309 150.262 24.4166 150.692 23.9807C151.13 23.5522 151.345 22.902 151.345 22.0228C151.345 21.3282 151.138 20.7963 150.715 20.4047C150.292 20.0205 149.75 19.821 149.09 19.821C148.407 19.821 147.865 19.9835 147.45 20.2864C147.034 20.6042 146.67 21.1583 146.366 21.9636H145.476V19.5624C146.908 19.2003 148.214 19.0156 149.394 19.0156C151.924 19.0156 153.186 19.9761 153.186 21.8898C153.186 23.3231 152.377 24.3649 150.759 25.0003V25.1333C152.547 25.6357 153.445 26.6775 153.445 28.2513C153.445 29.3817 153.059 30.2536 152.295 30.8742C151.523 31.4948 150.388 31.8051 148.874 31.8051C147.754 31.8051 146.589 31.6278 145.387 31.2806ZM168.805 19.6141C168.531 19.6806 168.338 19.7471 168.219 19.8136C168.1 19.8801 168.004 19.9614 167.937 20.0648C167.863 20.1682 167.811 20.316 167.781 20.5229C167.744 20.7224 167.729 21.0327 167.729 21.4538V29.3743C167.729 29.7807 167.744 30.0762 167.766 30.2683C167.796 30.453 167.841 30.6082 167.907 30.7116C167.974 30.8225 168.063 30.9185 168.189 30.9924C168.316 31.0663 168.523 31.1402 168.805 31.2067V31.6574H164.969V31.2067C165.318 31.1254 165.563 31.0294 165.696 30.9185C165.83 30.8077 165.926 30.6451 165.971 30.4309C166.023 30.2166 166.045 29.862 166.045 29.3743V25.8648C166.045 24.9412 166.06 24.0103 166.09 23.0645C166.112 22.1262 166.149 21.4834 166.186 21.1361H166.03L162.387 30.2018H161.333L157.949 20.9884H157.794C157.823 21.3578 157.853 22.0301 157.883 23.0054C157.905 23.9881 157.92 24.9855 157.92 26.0199V29.3743C157.92 29.7807 157.935 30.0762 157.964 30.2683C157.986 30.453 158.038 30.6082 158.105 30.7116C158.165 30.8225 158.261 30.9185 158.387 30.9924C158.513 31.0663 158.714 31.1402 158.996 31.2067V31.6574H155.642V31.2067C156.02 31.1106 156.28 31.0072 156.406 30.8816C156.532 30.7634 156.621 30.5934 156.658 30.3792C156.695 30.1575 156.718 29.8176 156.718 29.3743V21.4538C156.718 21.0327 156.703 20.7224 156.673 20.5377C156.643 20.3382 156.591 20.1904 156.525 20.087C156.45 19.9761 156.354 19.8949 156.235 19.8284C156.124 19.7693 155.924 19.6954 155.642 19.6141V19.1634H158.921L162.149 28.0739L165.696 19.1634H168.805V19.6141ZM179.624 19.1634V21.9267H178.726C178.63 21.6312 178.533 21.3652 178.437 21.1435C178.34 20.9145 178.237 20.7298 178.133 20.5746C178.029 20.4194 177.918 20.3012 177.791 20.2052C177.665 20.1165 177.517 20.0574 177.346 20.0205C177.175 19.9835 176.968 19.9687 176.73 19.9687H173.822V24.7639H175.788C176.062 24.7639 176.27 24.7269 176.426 24.6531C176.574 24.5792 176.708 24.4462 176.804 24.2615C176.908 24.0768 177.005 23.7886 177.094 23.4044H177.962V26.9139H177.094C177.012 26.5519 176.916 26.2785 176.812 26.0864C176.708 25.9017 176.582 25.7687 176.441 25.6948C176.292 25.6062 176.077 25.5692 175.788 25.5692H173.822V30.852H176.678C176.983 30.852 177.227 30.8299 177.413 30.7708C177.598 30.7264 177.762 30.6304 177.895 30.5048C178.029 30.3866 178.148 30.224 178.251 30.0245C178.355 29.8176 178.444 29.6108 178.519 29.3891C178.573 29.2152 178.647 28.9731 178.74 28.6668L178.808 28.4434H179.713L179.543 31.6574H171.031V31.2067C171.41 31.1106 171.662 31.0072 171.796 30.8816C171.922 30.7634 172.004 30.5934 172.041 30.3792C172.085 30.1575 172.107 29.8176 172.107 29.3743V21.4538C172.107 21.0327 172.085 20.7224 172.063 20.5377C172.026 20.3382 171.981 20.1904 171.907 20.087C171.84 19.9761 171.744 19.8949 171.625 19.8284C171.514 19.7693 171.313 19.6954 171.031 19.6141V19.1634H179.624ZM184.648 29.3448C184.648 29.6994 184.67 29.9876 184.707 30.2018C184.752 30.4161 184.811 30.586 184.893 30.7116C184.974 30.8372 185.086 30.9333 185.227 31.0072C185.375 31.0737 185.59 31.1402 185.894 31.2067V31.6574H181.858V31.2067C182.236 31.1106 182.488 31.0072 182.622 30.8816C182.748 30.7634 182.83 30.5934 182.874 30.3792C182.911 30.1575 182.934 29.8176 182.934 29.3743V21.4538C182.934 21.0327 182.911 20.7224 182.889 20.5377C182.852 20.3382 182.808 20.1904 182.733 20.087C182.667 19.9761 182.57 19.8949 182.451 19.8284C182.34 19.7693 182.14 19.6954 181.858 19.6141V19.1634H186.414C187.846 19.1634 188.914 19.4368 189.619 19.9835C190.317 20.5303 190.673 21.3652 190.673 22.4734C190.673 23.1163 190.562 23.6852 190.339 24.1876C190.117 24.6974 189.805 25.1111 189.404 25.4362C188.996 25.754 188.521 25.9904 187.972 26.1308C187.416 26.2711 186.837 26.3376 186.228 26.3376C185.553 26.3376 185.026 26.3303 184.648 26.3007V29.3448ZM184.648 25.5471H185.716C186.406 25.5471 186.978 25.451 187.43 25.2737C187.883 25.0964 188.224 24.7934 188.462 24.3797C188.707 23.9585 188.825 23.4044 188.825 22.7173C188.825 22.1927 188.751 21.7568 188.61 21.4021C188.469 21.0549 188.276 20.7741 188.031 20.5524C187.779 20.3456 187.482 20.1904 187.141 20.1017C186.8 20.0131 186.429 19.9687 186.021 19.9687C185.412 19.9687 184.959 19.9835 184.648 20.0131V25.5471ZM201.136 19.1634V21.9267H200.238C200.141 21.6312 200.052 21.3652 199.956 21.1435C199.859 20.9145 199.756 20.7298 199.652 20.5746C199.548 20.4194 199.429 20.3012 199.303 20.2052C199.177 20.1165 199.028 20.0574 198.858 20.0205C198.687 19.9835 198.479 19.9687 198.242 19.9687H195.34V24.7639H197.307C197.574 24.7639 197.782 24.7269 197.938 24.6531C198.093 24.5792 198.22 24.4462 198.323 24.2615C198.42 24.0768 198.516 23.7886 198.613 23.4044H199.474V26.9139H198.613C198.524 26.5519 198.427 26.2785 198.323 26.0864C198.22 25.9017 198.101 25.7687 197.952 25.6948C197.811 25.6062 197.596 25.5692 197.307 25.5692H195.34V30.852H198.197C198.494 30.852 198.739 30.8299 198.924 30.7708C199.117 30.7264 199.273 30.6304 199.407 30.5048C199.548 30.3866 199.667 30.224 199.77 30.0245C199.874 29.8176 199.956 29.6108 200.03 29.3891C200.043 29.3481 200.057 29.3032 200.072 29.2547L200.079 29.2325L200.08 29.232C200.144 29.0297 200.227 28.7657 200.32 28.4434H201.232L201.054 31.6574H192.543V31.2067C192.929 31.1106 193.181 31.0072 193.307 30.8816C193.433 30.7634 193.523 30.5934 193.56 30.3792C193.604 30.1575 193.619 29.8176 193.619 29.3743V21.4538C193.619 21.0327 193.604 20.7224 193.574 20.5377C193.545 20.3382 193.493 20.1904 193.419 20.087C193.352 19.9761 193.255 19.8949 193.144 19.8284C193.025 19.7693 192.825 19.6954 192.543 19.6141V19.1634H201.136ZM212.993 29.3743C212.993 29.7216 213.001 29.9876 213.023 30.1649C213.038 30.3422 213.068 30.4826 213.112 30.5934C213.157 30.6969 213.209 30.7855 213.268 30.852C213.327 30.9185 213.416 30.9776 213.528 31.0367C213.646 31.0885 213.825 31.1476 214.062 31.2067V31.6574H210.211V31.2067C210.545 31.1254 210.782 31.0294 210.916 30.9259C211.049 30.8225 211.146 30.6673 211.198 30.4457C211.25 30.2388 211.272 29.8767 211.272 29.3743V25.5323H206.167V29.3743C206.167 29.7807 206.182 30.0762 206.204 30.2683C206.234 30.453 206.278 30.6082 206.345 30.7116C206.412 30.8225 206.501 30.9185 206.627 30.9924C206.753 31.0663 206.961 31.1402 207.243 31.2067V31.6574H203.369V31.2067C203.755 31.1106 204.007 31.0072 204.134 30.8816C204.26 30.7634 204.349 30.5934 204.386 30.3792C204.423 30.1575 204.445 29.8176 204.445 29.3743V21.4538C204.445 21.0327 204.43 20.7224 204.401 20.5377C204.371 20.3382 204.319 20.1904 204.245 20.087C204.178 19.9761 204.082 19.8949 203.97 19.8284C203.852 19.7693 203.651 19.6954 203.369 19.6141V19.1634H207.243V19.6141C206.968 19.6806 206.775 19.7471 206.657 19.8136C206.538 19.8801 206.441 19.9614 206.375 20.0648C206.3 20.1682 206.248 20.316 206.211 20.5229C206.182 20.7224 206.167 21.0327 206.167 21.4538V24.6974H211.272V21.4538C211.272 20.9219 211.25 20.5598 211.198 20.3677C211.146 20.1682 211.057 20.0205 210.938 19.917C210.812 19.8136 210.567 19.7101 210.211 19.6141V19.1634H214.062V19.6141C213.713 19.7028 213.476 19.7988 213.342 19.9022C213.209 20.0131 213.12 20.1682 213.068 20.3825C213.016 20.5968 212.993 20.9514 212.993 21.4538V29.3743ZM223.234 31.6574V31.2067C223.701 31.0885 223.99 30.9259 224.117 30.7264C224.235 30.5343 224.295 30.0836 224.295 29.3817V25.4436C224.295 24.158 224.309 23.3305 224.339 22.9611H224.295L219.071 29.3817C219.071 30.1132 219.138 30.5713 219.264 30.7634C219.397 30.9481 219.687 31.0958 220.132 31.2067V31.6574H216.288V31.2067C216.763 31.0885 217.067 30.9259 217.186 30.7264C217.312 30.5343 217.379 30.0836 217.379 29.3817V21.4612C217.379 20.6559 217.297 20.1756 217.141 20.0057C216.978 19.8431 216.696 19.7101 216.288 19.6141V19.1634H220.132V19.6141C219.724 19.7175 219.442 19.8505 219.293 20.0205C219.145 20.1904 219.071 20.6707 219.071 21.4612V25.488C219.071 26.3894 219.048 27.1504 219.011 27.771H219.071L224.295 21.3504C224.295 20.7076 224.235 20.2864 224.109 20.087C223.983 19.8949 223.694 19.7397 223.234 19.6141V19.1634H227.055V19.6141C226.647 19.7175 226.365 19.8505 226.217 20.0205C226.061 20.1904 225.986 20.6707 225.986 21.4612V29.3817C225.986 30.1132 226.053 30.5713 226.187 30.7634C226.32 30.9481 226.61 31.0958 227.055 31.2067V31.6574H223.234ZM237.911 19.1634V21.9267H237.013C236.917 21.6312 236.82 21.3652 236.724 21.1435C236.627 20.9145 236.523 20.7298 236.419 20.5746C236.316 20.4194 236.197 20.3012 236.078 20.2052C235.952 20.1165 235.804 20.0574 235.633 20.0205C235.462 19.9835 235.255 19.9687 235.017 19.9687H232.108V24.7639H234.075C234.349 24.7639 234.557 24.7269 234.713 24.6531C234.861 24.5792 234.995 24.4462 235.091 24.2615C235.195 24.0768 235.292 23.7886 235.381 23.4044H236.249V26.9139H235.381C235.299 26.5519 235.203 26.2785 235.099 26.0864C234.995 25.9017 234.869 25.7687 234.728 25.6948C234.579 25.6062 234.364 25.5692 234.075 25.5692H232.108V30.852H234.965C235.269 30.852 235.514 30.8299 235.7 30.7708C235.885 30.7264 236.048 30.6304 236.182 30.5048C236.316 30.3866 236.434 30.224 236.538 30.0245C236.642 29.8176 236.731 29.6108 236.805 29.3891C236.86 29.2152 236.933 28.9731 237.027 28.6668L237.095 28.4434H238L237.822 31.6574H229.311V31.2067C229.697 31.1106 229.949 31.0072 230.083 30.8816C230.209 30.7634 230.29 30.5934 230.327 30.3792C230.372 30.1575 230.387 29.8176 230.387 29.3743V21.4538C230.387 21.0327 230.372 20.7224 230.35 20.5377C230.313 20.3382 230.268 20.1904 230.194 20.087C230.127 19.9761 230.031 19.8949 229.912 19.8284C229.801 19.7693 229.6 19.6954 229.311 19.6141V19.1634H237.911ZM182.956 38.2701V36.6668C182.57 36.5634 182.229 36.4969 181.932 36.4599C181.635 36.423 181.309 36.4082 180.96 36.4082C180.248 36.4082 179.646 36.5781 179.134 36.918C178.63 37.2579 178.244 37.7381 177.984 38.3588C177.725 38.9794 177.591 39.7035 177.591 40.5236C177.591 41.8388 177.843 42.8288 178.348 43.4938C178.853 44.1588 179.595 44.4912 180.574 44.4912C181.034 44.4912 181.457 44.4691 181.835 44.4174C182.221 44.373 182.592 44.2991 182.956 44.2031V42.5481H182.377C182.258 42.9323 182.125 43.2204 181.984 43.4125C181.85 43.612 181.68 43.7524 181.479 43.8484C181.279 43.9371 181.019 43.9814 180.7 43.9814C180.285 43.9814 179.928 43.8484 179.646 43.5751C179.357 43.3017 179.142 42.9027 178.994 42.3633C178.845 41.8314 178.771 41.1886 178.771 40.4276C178.771 39.6739 178.86 39.0385 179.038 38.5065C179.216 37.9746 179.461 37.5756 179.773 37.3096C180.084 37.051 180.44 36.918 180.841 36.918C181.108 36.918 181.338 36.955 181.524 37.0436C181.717 37.1249 181.88 37.2727 182.028 37.4721C182.169 37.6642 182.288 37.9302 182.377 38.2701H182.956ZM190.911 36.785V36.4969H184.299V36.785C184.477 36.8367 184.603 36.8811 184.677 36.918C184.752 36.9623 184.811 37.0141 184.856 37.0806C184.9 37.1471 184.93 37.2431 184.952 37.3613C184.967 37.4869 184.974 37.679 184.974 37.945V42.9544C184.974 43.2352 184.967 43.4495 184.937 43.5898C184.915 43.7302 184.863 43.8337 184.781 43.9075C184.7 43.9888 184.536 44.0553 184.299 44.1144V44.3952H186.748V44.1144C186.57 44.0701 186.436 44.0258 186.362 43.974C186.28 43.9297 186.221 43.8706 186.176 43.8041C186.139 43.7302 186.11 43.6342 186.087 43.516C186.073 43.3977 186.065 43.213 186.065 42.9544V37.0362H189.145V42.9544C189.145 43.2721 189.13 43.5012 189.093 43.6342C189.063 43.7672 189.004 43.8706 188.922 43.9371C188.833 44.0036 188.684 44.0627 188.469 44.1144V44.3952H190.911V44.1144C190.762 44.0775 190.651 44.0405 190.577 44.0036C190.51 43.9667 190.451 43.9297 190.413 43.8854C190.376 43.8484 190.339 43.7893 190.317 43.7228C190.287 43.6563 190.265 43.5677 190.258 43.4568C190.243 43.346 190.235 43.1761 190.235 42.9544V37.945C190.235 37.6273 190.25 37.4057 190.287 37.2727C190.317 37.1323 190.376 37.0362 190.458 36.9623C190.547 36.8958 190.695 36.8367 190.911 36.785ZM196.246 44.1144V44.3952H198.925V44.1144C198.754 44.0701 198.613 44.0036 198.516 43.9149C198.413 43.8263 198.323 43.7081 198.257 43.5455C198.182 43.3904 198.101 43.1613 198.004 42.8584L196.031 36.4082H195.11L192.691 42.814C192.536 43.213 192.38 43.5233 192.224 43.7376C192.061 43.9519 191.875 44.0775 191.66 44.1144V44.3952H194.138V44.1144C193.894 44.0775 193.715 44.011 193.597 43.9002C193.478 43.7893 193.419 43.6194 193.419 43.3904C193.419 43.2721 193.433 43.1391 193.463 42.9914C193.493 42.8436 193.56 42.6293 193.664 42.3412L193.856 41.7797H196.565L196.78 42.5259C196.839 42.7106 196.884 42.8805 196.914 43.0357C196.943 43.1909 196.958 43.3312 196.958 43.4568C196.958 43.5972 196.936 43.7081 196.891 43.7967C196.847 43.878 196.773 43.9445 196.676 43.9888C196.58 44.0331 196.439 44.0775 196.246 44.1144ZM196.446 41.2772H194.012L195.341 37.5386L196.446 41.2772ZM208.348 45.2966C208.475 45.666 208.549 46.0576 208.586 46.4788H209.179V43.8632H208.245V37.9524C208.245 37.4426 208.296 37.1323 208.393 37.0288C208.489 36.9254 208.66 36.8441 208.912 36.785V36.4969H206.471V36.785C206.746 36.8515 206.924 36.9402 207.02 37.0584C207.109 37.1692 207.154 37.4721 207.154 37.9524V43.8632H204.134V37.9524C204.134 37.45 204.186 37.1471 204.282 37.0436C204.378 36.9328 204.549 36.8515 204.809 36.785V36.4969H202.368V36.785C202.65 36.8515 202.828 36.9476 202.917 37.0658C202.998 37.1914 203.035 37.4869 203.035 37.9524V42.9618C203.035 43.3977 202.998 43.6859 202.924 43.8115C202.842 43.9371 202.664 44.0405 202.368 44.1144V44.3952H207.354C207.606 44.3952 207.807 44.4543 207.948 44.5651C208.096 44.6833 208.23 44.9272 208.348 45.2966ZM215.791 38.2479V36.4969H210.352V36.785C210.53 36.8367 210.664 36.8811 210.73 36.918C210.805 36.9623 210.864 37.0141 210.908 37.0806C210.953 37.1471 210.99 37.2431 211.005 37.3613C211.027 37.4869 211.035 37.679 211.035 37.945V42.9544C211.035 43.2352 211.02 43.4495 210.997 43.5898C210.975 43.7302 210.923 43.8337 210.842 43.9075C210.76 43.9888 210.597 44.0553 210.352 44.1144V44.3952H215.739L215.85 42.3707H215.272C215.236 42.4952 215.202 42.606 215.172 42.7031C215.14 42.8077 215.113 42.8964 215.093 42.9692L215.093 42.9696C215.041 43.1024 214.99 43.2353 214.923 43.3608C214.856 43.4938 214.782 43.5898 214.7 43.6711C214.611 43.7524 214.507 43.8041 214.389 43.841C214.277 43.8706 214.121 43.8854 213.928 43.8854H212.125V40.5532H213.365C213.55 40.5532 213.684 40.5753 213.78 40.627C213.869 40.6788 213.943 40.76 214.01 40.8783C214.077 40.9965 214.136 41.1664 214.188 41.4028H214.737V39.1789H214.188C214.136 39.4227 214.069 39.6074 214.01 39.7256C213.943 39.8365 213.862 39.9177 213.765 39.9695C213.669 40.0212 213.535 40.0434 213.365 40.0434H212.125V37.0067H213.958C214.107 37.0067 214.24 37.0215 214.351 37.0436C214.455 37.0658 214.552 37.1027 214.626 37.1618C214.708 37.2136 214.782 37.2948 214.849 37.3909C214.915 37.4869 214.982 37.6051 215.042 37.7529C215.101 37.8933 215.16 38.0558 215.22 38.2479H215.791ZM223.308 43.4568C223.293 43.346 223.286 43.1761 223.286 42.9544V37.945C223.286 37.6273 223.3 37.4057 223.33 37.2727C223.367 37.1323 223.419 37.0362 223.508 36.9623C223.59 36.8958 223.746 36.8367 223.961 36.785V36.4969H221.527V36.785C221.75 36.8441 221.905 36.9106 221.987 36.9697C222.061 37.0362 222.121 37.1323 222.15 37.2579C222.18 37.3835 222.202 37.6125 222.202 37.945V39.9916H218.967V37.945C218.967 37.679 218.974 37.4869 218.997 37.3539C219.019 37.2283 219.056 37.1323 219.1 37.0732C219.145 37.0067 219.204 36.955 219.279 36.9106C219.353 36.8663 219.479 36.8293 219.65 36.785V36.4969H217.201V36.785C217.379 36.8367 217.505 36.8811 217.579 36.918C217.653 36.9623 217.713 37.0141 217.757 37.0806C217.802 37.1471 217.832 37.2431 217.854 37.3613C217.869 37.4869 217.884 37.679 217.884 37.945V42.9544C217.884 43.2352 217.869 43.4495 217.846 43.5898C217.817 43.7302 217.765 43.8337 217.683 43.9075C217.602 43.9888 217.446 44.0553 217.201 44.1144V44.3952H219.65V44.1144C219.471 44.0701 219.338 44.0258 219.264 43.974C219.182 43.9297 219.123 43.8706 219.078 43.8041C219.041 43.7302 219.011 43.6342 218.997 43.516C218.974 43.3977 218.967 43.213 218.967 42.9544V40.5236H222.202V42.9544C222.202 43.2721 222.18 43.5012 222.15 43.6342C222.121 43.7672 222.061 43.8706 221.972 43.9371C221.891 44.0036 221.742 44.0627 221.527 44.1144V44.3952H223.961V44.1144C223.812 44.0775 223.701 44.0405 223.627 44.0036C223.553 43.9667 223.501 43.9297 223.464 43.8854C223.419 43.8484 223.389 43.7893 223.36 43.7228C223.337 43.6563 223.315 43.5677 223.308 43.4568ZM231.344 36.4969H225.052V38.5139H225.63C225.705 38.2036 225.779 37.945 225.86 37.7455C225.949 37.546 226.038 37.3909 226.142 37.28C226.239 37.1692 226.35 37.0953 226.469 37.0584C226.588 37.0288 226.736 37.0067 226.921 37.0067H227.649V42.9323C227.649 43.1687 227.641 43.3386 227.619 43.4568C227.597 43.5825 227.567 43.6785 227.53 43.745C227.493 43.8115 227.448 43.8706 227.396 43.9149C227.337 43.9593 227.263 43.9962 227.174 44.0258C227.085 44.0553 226.981 44.0849 226.862 44.1144V44.3952H229.519V44.1144C229.333 44.0701 229.192 44.0258 229.103 43.9888C229.014 43.9371 228.947 43.878 228.888 43.7967C228.843 43.7228 228.799 43.612 228.777 43.479C228.747 43.346 228.739 43.1613 228.739 42.9323V37.0067H229.474C229.689 37.0067 229.845 37.0288 229.956 37.0732C230.06 37.1101 230.164 37.184 230.253 37.2874C230.35 37.3835 230.439 37.5313 230.52 37.7234C230.602 37.9228 230.684 38.1814 230.773 38.5139H231.344V36.4969ZM234.231 43.479C234.208 43.346 234.193 43.1613 234.193 42.9323V41.0112C234.431 41.026 234.765 41.0334 235.195 41.0334C235.581 41.0334 235.945 40.9891 236.293 40.9004C236.642 40.8118 236.946 40.664 237.199 40.4645C237.458 40.2576 237.651 39.9916 237.792 39.6739C237.933 39.3562 238 38.9942 238 38.5952C238 37.8859 237.777 37.3613 237.34 37.0141C236.894 36.6742 236.219 36.4969 235.314 36.4969H232.427V36.785C232.605 36.8367 232.732 36.8811 232.806 36.918C232.88 36.9623 232.939 37.0141 232.984 37.0806C233.028 37.1471 233.058 37.2431 233.08 37.3613C233.095 37.4869 233.11 37.679 233.11 37.945V42.9544C233.11 43.2352 233.095 43.4495 233.073 43.5898C233.043 43.7302 232.991 43.8337 232.91 43.9075C232.828 43.9888 232.672 44.0553 232.427 44.1144V44.3952H234.98V44.1144C234.787 44.0701 234.653 44.0258 234.564 43.9888C234.475 43.9371 234.401 43.878 234.349 43.7967C234.297 43.7228 234.26 43.612 234.231 43.479ZM234.869 40.531H234.193V37.0362C234.386 37.0141 234.676 37.0067 235.062 37.0067C235.321 37.0067 235.551 37.0362 235.767 37.0953C235.989 37.1471 236.175 37.2431 236.33 37.3761C236.486 37.5165 236.612 37.6938 236.701 37.9155C236.791 38.1371 236.835 38.4105 236.835 38.743C236.835 39.1789 236.761 39.5335 236.605 39.7921C236.457 40.0581 236.241 40.2502 235.952 40.3611C235.67 40.4719 235.306 40.531 234.869 40.531ZM172.471 41.8017H60.2086V41.0776H172.471V41.8017ZM125.738 12.883H238V12.1589H125.738V12.883Z" fill="#FEFEFE"/>
</svg>
