<svg width="95" height="95" viewBox="0 0 95 95" fill="none" xmlns="http://www.w3.org/2000/svg">
<g id="&#208;&#152;&#208;&#186;&#208;&#190;&#208;&#189;&#208;&#186;&#208;&#176; &#34;&#208;&#158;&#209;&#130;&#208;&#183;&#209;&#139;&#208;&#178; 1&#34;">
<circle id="&#208;&#159;&#208;&#190;&#208;&#180;&#208;&#187;&#208;&#190;&#208;&#182;&#208;&#186;&#208;&#176;" cx="47.5" cy="47.5" r="47.5" fill="white"/>
<path id="&#208;&#152;&#208;&#186;&#208;&#190;&#208;&#189;&#208;&#186;&#208;&#176; &#34;&#208;&#158;&#209;&#130;&#208;&#183;&#209;&#139;&#208;&#178; 1&#34;_2" fill-rule="evenodd" clip-rule="evenodd" d="M63.9801 92.0633C64.6743 91.4736 65.4049 90.9159 66.1315 90.3614C66.5697 90.0269 67.0064 89.6935 67.4327 89.355C67.5097 89.2934 67.5867 89.2317 67.6637 89.17C69.8587 87.4126 72.1033 85.6155 73.4934 82.647C75.499 78.4924 73.5369 75.5495 70.7029 74.0348C69.315 73.2776 67.9116 72.615 66.531 71.9632C62.2297 69.9323 58.1489 68.0055 55.4423 63.6482C52.957 59.5801 51.5618 54.257 50.5154 49.3666C50.4535 49.1108 50.4136 48.8864 50.3777 48.6849C50.262 48.0342 50.1886 47.6221 49.5561 47.1595C48.9021 46.7267 48.2481 46.3805 47.3324 46.1208C47.4859 46.4508 47.4893 46.4532 47.5364 46.4862C47.5695 46.5094 47.6243 46.5478 47.7685 46.7267C52.3537 52.0656 50.6777 56.7554 49.0583 61.2868C48.2755 63.4774 47.5059 65.6309 47.4632 67.8028C48.1298 67.8028 48.8177 67.5607 49.4116 67.3517C50.022 67.1368 50.5333 66.9569 50.8206 67.1104C50.3498 67.5573 49.783 67.7658 49.2193 67.9732C48.5822 68.2076 47.9491 68.4405 47.4632 69.0146C47.3324 72.2604 48.5969 75.3331 51.8234 75.3331C53.5239 75.3331 54.7447 74.5541 55.5295 73.6453C56.1399 72.9529 56.4016 71.6112 56.0527 70.6159C55.8931 70.1009 55.8796 70.0936 55.5775 69.93C55.5495 69.9149 55.5191 69.8985 55.4859 69.8801C55.0531 70.061 55.0011 70.1946 54.9507 70.3242C54.9046 70.4427 54.8599 70.5577 54.5267 70.7024C54.3087 70.1831 54.9627 69.4907 55.4423 69.2743C57.3608 68.4087 59.5845 70.7457 59.5845 72.7797C59.6717 78.6655 52.2594 80.31 46.6784 75.9823C44.4547 74.2945 43.6699 71.1352 43.8879 68.3654C42.0131 67.4566 40.7486 65.5524 40.4434 63.4751C40.1018 61.4067 40.3624 59.7434 40.6223 58.0846C41.0259 55.5091 41.4278 52.9443 39.5714 48.8906C37.9803 45.3846 35.9944 44.2991 33.5119 42.9422C32.593 42.4399 31.606 41.9004 30.5459 41.1872C29.89 40.7385 29.2107 40.2988 28.5255 39.8553C25.8402 38.117 23.0651 36.3206 21.2587 33.7002C19.9507 31.7527 19.4275 29.8917 19.5583 27.0787C19.714 27.2139 20.1218 27.8927 20.5992 28.6874C21.1912 29.6726 21.8902 30.8361 22.3488 31.3632C23.4388 32.6615 24.6597 33.7002 25.9677 34.7388C28.3222 36.5565 31.4179 38.7636 35.2112 39.3695C37.6197 39.7707 40.0997 39.7328 42.586 39.6948C46.5361 39.6345 50.502 39.5739 54.2215 41.2737C55.0499 41.6199 55.7911 42.0527 56.4452 42.5288C56.8933 42.8166 57.2617 43.1044 57.6179 43.3826C57.8509 43.5646 58.0786 43.7425 58.32 43.9136C55.4889 39.3153 49.4294 38.911 43.1717 38.4935C40.9485 38.3452 38.7003 38.1951 36.5629 37.8548C30.7203 36.9027 20.7791 33.1808 20.2559 26.2997C20.3265 26.3931 20.3336 26.3983 20.3594 26.4173C20.3814 26.4335 20.4171 26.4597 20.5175 26.5594C20.637 26.7254 20.5993 26.6964 20.5768 26.6791C20.5581 26.6648 20.5498 26.6584 20.6483 26.7758C20.7355 26.8623 20.8227 26.9921 20.9099 27.122L20.9099 27.122C22.0872 28.8963 23.5696 30.4543 25.1829 31.7094C31.2725 36.5833 37.7736 37.0075 43.6637 37.3919C51.0582 37.8745 57.4899 38.2943 60.9361 47.3758C61.1907 48.0448 61.4453 48.8273 61.7187 49.6676C63.0371 53.7198 64.7921 59.1141 69.0896 59.5801C68.6457 59.1969 68.1505 58.9325 67.6456 58.6629C67.01 58.3235 66.3591 57.9759 65.7759 57.373C63.4971 55.1265 62.9104 52.1033 62.3148 49.0345C61.2351 43.4718 60.1265 37.7596 48.8585 36.2535C46.168 35.8831 43.9102 35.8595 41.7705 35.8371C37.9113 35.7967 34.4362 35.7604 29.4994 33.7002C27.6682 32.9212 25.7497 31.9258 24.3981 30.6274C24.2768 30.5071 24.1388 30.3768 23.997 30.2429C23.6287 29.8953 23.2353 29.5238 23.0464 29.2426C21.6948 27.5115 19.7763 23.1837 23.0028 22.0585C23.7004 25.0447 26.4037 26.9489 29.4994 27.8577C32.3402 28.7121 36.6998 29.4084 41.3727 30.1547C46.1671 30.9204 51.2911 31.7388 55.4423 32.8346C56.2969 33.0578 57.1282 33.3616 57.9363 33.6569C58.6951 33.9342 59.4334 34.204 60.1513 34.3926C59.4537 33.2241 58.102 32.2287 56.6632 31.4497C52.6142 29.4005 47.3766 28.9153 42.183 28.4341C36.0791 27.8687 30.0361 27.3088 26.0549 24.2224C25.0957 23.4867 23.8312 22.3614 23.308 20.8467C23.6832 20.6605 24.0378 20.4662 24.3959 20.2699C25.2029 19.8275 26.0275 19.3755 27.1449 18.9858C28.4966 18.5097 30.1535 18.1202 31.5923 17.9039C35.342 17.3413 38.1325 17.5576 41.5334 18.6396C43.6859 19.3452 46.0978 20.8143 48.4693 22.2588C51.3339 24.0037 54.1396 25.7126 56.358 25.9968C54.5703 24.0493 52.7826 22.2749 50.6898 20.5871C42.1439 13.8358 28.1478 14.3551 21.2151 22.5778C20.8227 23.0972 20.1251 24.0925 19.8635 24.8283C19.7836 25.0322 19.7126 25.2748 19.6381 25.5295C19.4281 26.2475 19.1898 27.0622 18.6427 27.3816C18.4246 22.2749 19.7763 20.3707 23.2208 17.1249C29.543 11.1526 43.5827 9.33492 51.649 13.3164C52.4338 13.7059 53.3059 14.2253 53.9163 14.658C56.1836 16.2593 57.4916 18.0337 59.1485 20.3707C59.3859 20.7148 59.6051 21.0367 59.8106 21.3385C61.983 24.5282 62.6302 25.4785 67.1711 26.8623C74.409 29.0695 79.554 36.5997 76.2402 44.9523C75.3246 47.2027 74.9322 48.4578 75.8042 51.0112C78.4297 51.1888 79.8507 50.4952 81.3524 49.7621C82.0453 49.4239 82.7554 49.0773 83.6089 48.804C82.8063 50.1052 81.1994 50.5591 79.6543 50.9955C78.6812 51.2704 77.7327 51.5383 77.0251 52.0065C77.5868 52.5212 78.6149 52.9887 79.8342 53.5431C82.3058 54.6669 85.5632 56.148 87.315 59.104C88.6667 61.3978 88.9719 65.2927 88.4487 67.8894C88.2743 68.7117 87.9255 69.7503 87.533 70.4428C87.3737 70.7415 87.1568 71.0189 86.9408 71.2951C86.6249 71.6991 86.3109 72.1007 86.1814 72.5634C86.0192 73.0234 86.0417 73.6056 86.0657 74.2257C86.0783 74.5503 86.0912 74.8852 86.0783 75.2183C84.0234 78.0732 81.6595 80.6908 79.0354 83.0221C78.7514 83.0582 78.4632 83.082 78.1566 83.1074C77.6049 83.153 76.9935 83.2035 76.2402 83.3394C75.5807 84.7579 74.8324 85.8683 74.0178 86.9147C70.9129 89.0077 67.5474 90.7435 63.9801 92.0633ZM8.83512 58.8302C8.8663 59.2841 8.88771 59.5959 8.3963 59.8398C6.74722 54.509 9.80214 53.463 12.7468 52.4547C15.5635 51.4902 18.2793 50.5602 16.6806 45.9477C16.2437 44.6771 15.7524 43.5851 15.2993 42.578C13.8079 39.2631 12.7306 36.8687 15.3725 32.0556C15.983 30.9304 17.073 29.2426 17.9014 28.5501C17.801 28.7873 17.6966 29.0307 17.5898 29.2797C15.9824 33.0285 13.8323 38.0432 16.2446 42.1825C16.1902 41.6611 16.0757 41.2144 15.9572 40.7523C15.7905 40.1023 15.616 39.422 15.5905 38.4607C15.5033 34.1329 16.637 32.0123 18.8607 28.5501C19.2372 29.4322 19.364 30.273 19.5053 31.2099C19.773 32.9849 20.0927 35.1048 22.2616 38.504C24.8822 42.6001 24.527 44.2175 24.1144 46.0961C23.9298 46.9367 23.7337 47.8297 23.7876 49.0204C24.0967 49.1738 24.4261 49.2802 24.7491 49.3845C25.2463 49.5452 25.7285 49.701 26.0985 50.0158L26.1421 52.0065C26.2366 52.0769 26.3253 52.1443 26.4107 52.2093C26.7984 52.504 27.1165 52.7459 27.581 52.9586C27.6086 53.1966 27.6207 53.3804 27.6304 53.5276C27.6664 54.0763 27.669 54.1163 28.3222 54.5599C29.3824 55.3253 29.4439 55.9849 29.4928 56.5095C29.5324 56.9342 29.5637 57.2705 30.1098 57.5028C32.0979 58.3569 34.4494 56.5653 36.12 55.2926C36.9042 54.6951 37.5384 54.2119 37.9145 54.1704C38.4813 56.6372 38.6557 60.6188 35.2112 61.0948C35.1721 60.474 35.2557 59.9489 35.3402 59.418C35.4442 58.7647 35.5495 58.1027 35.4292 57.2431C35.0993 57.4978 34.8311 57.9564 34.5371 58.4589C33.7821 59.7496 32.8576 61.33 30.2843 60.4889C29.7187 60.3056 29.1318 60.0859 28.5291 59.8604C26.8551 59.2338 25.0597 58.5618 23.2644 58.4982C16.9858 58.2818 16.8114 64.557 16.7678 70.0965L16.5498 74.9869L13.6285 74.9436C13.9491 74.5345 14.3499 74.2686 14.7447 74.0066C15.4776 73.5205 16.1901 73.0478 16.3318 71.6978C16.4615 70.5707 16.036 69.132 15.6661 67.8811C15.5388 67.451 15.4182 67.043 15.3289 66.6776C14.2714 62.6189 16.2634 61.1626 17.9177 59.9532C18.3096 59.6668 18.6825 59.3941 18.9915 59.104C13.4161 60.039 14.0839 62.8035 14.8066 65.7951C15.3216 67.9272 15.8645 70.1746 14.1953 71.9575C12.6991 73.5188 11.6754 73.2707 9.87685 72.8348C9.63137 72.7753 9.37145 72.7123 9.09392 72.6499C9.41271 72.4126 9.74971 72.356 10.0924 72.2985C10.4997 72.2301 10.9151 72.1604 11.3176 71.7844C13.0181 70.2264 11.8408 66.6776 11.0996 65.2062C6.90085 56.696 12.4099 55.1575 16.6055 53.9858C17.5946 53.7096 18.5108 53.4537 19.2095 53.1318C22.3461 51.7033 19.9548 48.4769 18.5643 46.6008C18.3119 46.2602 18.0924 45.9641 17.945 45.7313C18.9758 53.2076 15.9054 53.9737 13.0356 54.6898C11.171 55.155 9.39108 55.5991 8.87591 57.849C8.79441 58.2373 8.81651 58.5591 8.83512 58.8302ZM75.4554 69.7936L66.9967 67.5864C67.7027 68.0785 68.5847 68.5191 69.5338 68.9933C71.3397 69.8956 73.3889 70.9195 74.9322 72.6499C75.8914 73.6453 76.7635 75.0302 77.1559 76.8911C77.5925 78.9495 77.3308 79.9231 76.9282 81.4211C76.8483 81.7184 76.7629 82.0363 76.6763 82.3874C80.1208 81.5651 81.2544 78.7953 81.4288 75.6361C80.9164 75.6361 80.6436 75.7673 80.3873 75.8904C80.0549 76.0503 79.7505 76.1966 78.9871 76.0256C79.0844 75.9566 79.2615 75.8832 79.483 75.7914C79.9563 75.5952 80.6326 75.315 81.1672 74.8138C80.4696 71.8709 78.4203 70.6159 75.4554 69.7936ZM84.4647 68.6604C84.9062 69.3556 85.3536 70.06 85.7018 70.3562C86.9662 67.7596 86.7046 63.778 84.9169 61.9604C83.6081 60.6137 81.6507 59.9805 79.5752 59.309C75.9811 58.1461 72.0327 56.8687 70.4849 51.5738C70.3676 51.1749 70.3405 51.0441 70.2601 50.9779C70.1311 50.8717 69.8653 50.9318 68.8716 50.3187C67.5264 49.474 67.1492 49.0925 66.7386 48.6773C66.4972 48.4331 66.2442 48.1773 65.7759 47.8086C66.2991 49.8859 68.3484 53.6944 69.4384 54.8196C71.0792 56.5034 72.2588 56.902 73.6561 57.374C74.4495 57.6421 75.313 57.9339 76.3711 58.4982C78.6819 59.7532 80.8184 61.1814 81.734 63.6915C81.868 64.0681 81.9447 64.4786 82.017 64.8652C82.086 65.2339 82.1508 65.5807 82.2573 65.8553C82.3393 66.0996 82.6955 66.4459 83.0252 66.7662C83.2212 66.9568 83.4079 67.1382 83.5217 67.2835C83.8027 67.6182 84.132 68.1367 84.4647 68.6604ZM41.7525 58.566C41.3854 62.6479 41.0683 66.1744 44.1059 67.1537C44.2819 65.6984 44.7828 63.9926 45.3108 62.1946C46.7456 57.3089 48.3801 51.7428 44.2367 48.6742C43.3647 48.025 40.2254 45.991 39.0918 45.6447C39.3277 46.1968 39.6419 46.6195 39.9788 47.0729C40.5135 47.7924 41.1055 48.5891 41.5334 50.1023C42.2743 52.7635 42.0018 55.7929 41.7525 58.566Z" fill="#50A2A8"/>
</g>
</svg>
