<svg width="31" height="30" viewBox="0 0 31 30" fill="none" xmlns="http://www.w3.org/2000/svg">
<path id="&#208;&#151;&#208;&#178;&#208;&#181;&#208;&#183;&#208;&#180;&#208;&#176; 1" d="M21.0169 7.8052C21.0884 7.98745 21.099 7.99802 21.1943 8.01387C22.966 8.19348 25.0316 8.32555 26.7423 8.68741C29.1998 9.21304 31.2124 10.2828 30.6908 12.7234C30.5875 13.2041 29.4461 14.5459 28.1405 15.9062C26.9197 17.1794 25.5241 18.5317 24.7482 19.1868C24.8144 20.2988 25.0898 21.5482 25.352 22.7421C26.0061 25.7215 26.5993 28.4183 24.2345 29.4537C22.0364 30.4178 17.418 27.1795 15.3868 26.1256C13.3557 27.1795 8.73721 30.4178 6.5392 29.4537C4.17436 28.4183 4.76756 25.7215 5.42166 22.7421C5.68383 21.5482 5.95925 20.2988 6.02545 19.1868C5.24953 18.5317 3.85393 17.1794 2.63311 15.9062C1.32755 14.5459 0.186178 13.2041 0.0828985 12.7234C-0.438796 10.2828 1.57648 9.21304 4.03136 8.68741C5.74209 8.32555 7.80769 8.19348 9.57933 8.01387C9.67467 7.99802 9.68526 7.98745 9.75676 7.8052C10.5883 6.0487 11.4648 4.31333 12.3255 2.57004C13.0299 1.14371 13.5887 0.0132068 15.3762 0H15.3974C17.185 0.0132068 17.7437 1.14371 18.4481 2.57004C19.3088 4.31333 20.1854 6.0487 21.0169 7.8052Z" fill="#50A2A8"/>
</svg>
